<?xml version="1.0" encoding="UTF-8" standalone="no"?>
<!DOCTYPE svg PUBLIC "-//W3C//DTD SVG 1.1//EN" "http://www.w3.org/Graphics/SVG/1.1/DTD/svg11.dtd">
<svg width="100%" height="100%" viewBox="0 0 5334 1389" version="1.1" xmlns="http://www.w3.org/2000/svg" xmlns:xlink="http://www.w3.org/1999/xlink" xml:space="preserve" xmlns:serif="http://www.serif.com/" style="fill-rule:evenodd;clip-rule:evenodd;stroke-linejoin:round;stroke-miterlimit:2;">
    <g transform="matrix(3.26863,0,0,3.26863,-806.576,-429.845)">
        <g id="heroName">
            <path d="M801.273,322.157L476.714,322.157L418.316,242.148L404.521,242.148L404.521,322.157L366.815,322.157L366.815,142.825L404.521,142.825L404.521,211.799L418.316,211.799L469.817,142.825L665.703,142.825L665.703,291.809L731.362,291.809L686.546,144.204L686.546,142.825L725.632,142.825L769.315,289.05L774.833,289.05L818.057,142.825L880.134,142.825L880.134,322.157L841.508,322.157L841.508,189.639L801.273,322.157ZM508.442,149.6L450.504,225.134L508.442,301.893L508.442,149.6ZM627.077,173.174L546.608,173.174L546.608,212.719L611.443,212.719L611.443,240.768L546.608,240.768L546.608,291.809L627.077,291.809L627.077,173.174ZM892.065,501.267L892.065,142.825L958.74,142.825L1014.38,291.809L1019.9,291.809L1019.9,142.825L1054.84,142.825L1054.84,363.738C1055.11,363.133 1055.37,362.534 1055.65,361.939C1062.01,348.145 1071.36,337.492 1083.7,329.981C1096.04,322.471 1111.25,318.716 1129.34,318.716C1144.97,318.716 1158.08,321.398 1168.65,326.763C1179.23,332.127 1187.5,339.523 1193.48,348.949C1196.35,353.476 1198.73,358.347 1200.61,363.564L1200.61,321.935L1239.69,321.935L1239.69,425.855C1239.69,440.57 1242.49,452.066 1248.09,460.342C1253.68,468.619 1263.61,472.758 1277.86,472.758C1292.27,472.758 1302.23,468.619 1307.75,460.342C1313.27,452.066 1316.03,440.57 1316.03,425.855L1316.03,321.935L1379.48,321.935L1402.01,363.319C1404.16,367.151 1406.27,371.098 1408.34,375.159C1410.4,379.221 1412.44,383.858 1414.43,389.069L1419.03,389.069C1421.17,383.858 1423.28,379.221 1425.35,375.159C1427.42,371.098 1429.45,367.151 1431.44,363.319L1453.28,321.935L1662.28,321.935L1717.91,470.918L1723.43,470.918L1723.43,321.935L1758.38,321.935L1758.38,501.267L1691.24,501.267L1635.84,352.283L1630.55,352.283L1630.55,501.267L1476.96,501.267L1476.96,348.773L1433.74,427.235L1433.74,501.267L1395.12,501.267L1395.12,426.775L1354.19,352.815L1354.19,427.005C1354.19,451.989 1347.91,471.187 1335.34,484.598C1322.77,498.01 1303.46,504.716 1277.4,504.716C1251.5,504.716 1232.22,498.01 1219.58,484.598C1213.16,477.79 1208.37,469.491 1205.21,459.701L1205.21,501.267L1177.39,501.267L1177.39,480.575L1171.87,480.575C1168.8,486.706 1163.55,492.224 1156.12,497.129C1148.69,502.033 1137.92,504.486 1123.82,504.486C1107.42,504.486 1093.43,500.616 1081.86,492.875C1070.29,485.135 1061.43,474.252 1055.3,460.227C1055.15,459.872 1055,459.516 1054.84,459.158L1054.84,501.267L987.709,501.267L932.3,352.283L927.012,352.283L927.012,501.267L892.065,501.267ZM1019.9,322.157L987.709,322.157L932.3,173.174L927.012,173.174L927.012,321.935L958.74,321.935L1014.38,470.918L1019.9,470.918L1019.9,322.157ZM1200.61,381.712L1168.19,381.712C1166.35,370.676 1162.14,362.246 1155.55,356.422C1148.95,350.597 1140.07,347.685 1128.88,347.685C1114.01,347.685 1102.93,353.241 1095.65,364.354C1088.37,375.466 1084.73,391.138 1084.73,411.371C1084.73,432.063 1088.53,448.004 1096.11,459.193C1103.7,470.382 1114.93,475.976 1129.8,475.976C1142.21,475.976 1151.79,472.336 1158.53,465.056C1165.28,457.775 1169.03,447.927 1169.8,435.512L1119.22,435.512L1119.22,407.692L1200.61,407.692L1200.61,381.712ZM1595.6,352.283L1515.13,352.283L1515.13,391.828L1579.97,391.828L1579.97,419.878L1515.13,419.878L1515.13,470.918L1595.6,470.918L1595.6,352.283Z" style="fill:rgb(45,31,234);"/>
        </g>
    </g>
    <g transform="matrix(0.521951,0,0,0.660948,-1190.58,37.6139)">
        <path d="M2683.61,919.297C2659.66,919.297 2636.15,916.27 2613.08,910.216C2590.01,904.162 2571.02,893.351 2556.13,877.783C2541.23,862.215 2533.78,840.305 2533.78,812.052L2533.78,803.404C2533.78,798.791 2534.22,793.602 2535.1,787.836C2535.97,782.07 2538.16,779.187 2541.67,779.187C2545.18,779.187 2546.93,781.205 2546.93,785.241C2546.93,787.548 2546.78,790.142 2546.49,793.025C2546.2,795.908 2546.05,798.791 2546.05,801.674C2546.05,828.197 2553.79,849.242 2569.27,864.81C2584.75,880.378 2604.02,891.477 2627.1,898.108C2650.17,904.738 2672.8,908.054 2695,908.054C2733.55,908.054 2769.47,900.991 2802.76,886.864C2836.06,872.738 2866.87,853.855 2895.2,830.215C2923.53,806.575 2949.52,780.484 2973.18,751.944C2996.83,723.403 3018.59,694.717 3038.45,665.888C2996.4,653.78 2957.26,634.897 2921.05,609.239C2884.83,583.581 2855.77,552.301 2833.87,515.4C2811.97,478.498 2801.01,437.272 2801.01,391.722C2801.01,347.902 2810.65,308.982 2829.93,274.964C2849.2,240.945 2874.76,211.251 2906.59,185.881C2938.42,160.512 2973.47,139.322 3011.73,122.313C3049.99,105.304 3087.81,92.186 3125.19,82.961C3163.74,73.159 3202.58,66.096 3241.72,61.772C3280.85,57.447 3319.99,54.708 3359.12,53.555C3373.14,52.402 3387.16,51.825 3401.18,51.825L3442.36,51.825C3458.13,51.825 3473.9,51.97 3489.67,52.258C3505.44,52.546 3520.92,52.69 3536.11,52.69C3540.2,52.69 3546.18,53.411 3554.07,54.853C3561.95,56.294 3565.9,60.186 3565.9,66.528C3565.9,70.564 3564,73.736 3560.2,76.042C3556.41,78.348 3552.76,79.502 3549.25,79.502C3543.41,79.502 3537.72,78.06 3532.17,75.177C3526.62,72.294 3519.75,70.853 3511.58,70.853C3492.88,70.853 3473.76,78.493 3454.19,93.772C3434.62,109.052 3415.2,129.232 3395.92,154.313C3376.65,179.395 3357.96,206.783 3339.85,236.477C3321.74,266.171 3305.1,295.865 3289.91,325.559C3274.72,355.253 3261.58,382.497 3250.48,407.29C3239.38,432.083 3230.62,451.399 3224.2,465.237L3227.7,468.696C3249.9,439.867 3277.06,407.578 3309.18,371.83C3341.31,336.082 3376.5,299.757 3414.76,262.856C3453.02,225.954 3492.74,190.782 3533.92,157.341C3575.1,123.899 3615.84,94.781 3656.14,69.988C3696.45,45.195 3734.41,27.321 3770.04,16.366C3795.16,8.87 3821.74,5.122 3849.77,5.122C3864.96,5.122 3881.17,6.996 3898.4,10.744C3915.63,14.492 3931.99,20.546 3947.46,28.906C3962.94,37.267 3975.5,47.934 3985.14,60.907C3994.78,73.88 3999.6,89.592 3999.6,108.043C3999.6,127.07 3994.05,144.511 3982.95,160.368C3971.85,176.224 3957.69,190.494 3940.45,203.179C3923.22,215.864 3905.12,226.819 3886.13,236.044C3867.15,245.27 3850.06,252.765 3834.88,258.531C3831.37,259.684 3828.74,260.261 3826.99,260.261C3821.74,260.261 3819.11,258.531 3819.11,255.072C3819.11,252.765 3819.98,250.891 3821.74,249.45C3823.49,248.008 3825.24,246.999 3826.99,246.423C3835.17,243.54 3843.06,240.801 3850.65,238.207C3858.24,235.612 3865.84,232.873 3873.43,229.99C3887.45,223.648 3903.22,215.287 3920.74,204.909C3938.26,194.53 3953.6,182.134 3966.74,167.719C3979.88,153.304 3986.45,137.448 3986.45,120.151C3986.45,106.313 3982.22,94.637 3973.75,85.123C3965.28,75.61 3954.62,68.114 3941.77,62.636C3928.92,57.159 3915.63,53.267 3901.9,50.961C3888.18,48.654 3875.76,47.501 3864.67,47.501C3850.06,47.501 3835.17,48.654 3819.98,50.961C3804.8,53.267 3790.19,56.726 3776.18,61.339C3742.88,71.141 3706.52,87.718 3667.09,111.07C3627.67,134.421 3587.51,161.809 3546.62,193.233C3505.74,224.657 3466.02,257.81 3427.47,292.694C3388.91,327.577 3353.58,361.596 3321.45,394.749C3289.32,427.903 3262.16,457.741 3239.97,484.264C3259.83,509.057 3278.96,534.859 3297.36,561.671C3315.76,588.482 3334.59,614.86 3353.87,640.807C3393.59,626.392 3430.97,606.5 3466.02,581.13C3501.06,555.761 3528.81,524.337 3549.25,486.859C3553.92,478.786 3557.87,470.714 3561.08,462.642C3564.29,454.57 3567.36,446.498 3570.28,438.426C3571.45,435.543 3573.49,434.101 3576.41,434.101C3581.08,434.101 3583.42,436.119 3583.42,440.155C3583.42,441.308 3583.13,442.173 3582.55,442.75C3572.03,476.192 3555.53,506.318 3533.04,533.13C3510.55,559.941 3484.41,583.004 3454.63,602.32C3424.84,621.635 3393.59,637.347 3360.88,649.456C3371.97,663.87 3384.97,679.87 3399.87,697.456C3414.76,715.042 3431.12,731.763 3448.93,747.619C3466.75,763.475 3485.44,776.448 3505.01,786.539C3524.57,796.629 3544.58,801.674 3565.02,801.674C3586.63,801.674 3603.72,796.341 3616.28,785.674C3628.84,775.007 3637.89,761.313 3643.44,744.592C3648.99,727.871 3651.76,710.285 3651.76,691.835C3651.76,673.96 3650.01,656.23 3646.5,638.645C3643,621.059 3638.91,603.905 3634.24,587.184L3634.24,584.59C3634.24,580.554 3636.28,578.536 3640.37,578.536C3643.88,578.536 3647.09,583.292 3650.01,592.806C3652.93,602.32 3655.41,613.563 3657.46,626.536C3659.5,639.509 3660.96,651.618 3661.84,662.861C3662.71,674.105 3663.15,681.744 3663.15,685.78C3663.15,727.871 3651.76,763.043 3628.98,791.295C3606.2,819.548 3572.32,833.674 3527.35,833.674C3491.72,833.674 3460.03,825.602 3432.28,809.458C3404.54,793.313 3379.86,772.412 3358.25,746.754C3336.64,721.096 3317.07,694.717 3299.55,667.618C3256.91,677.997 3213.1,683.186 3168.12,683.186C3157.02,683.186 3145.93,682.753 3134.83,681.888C3123.73,681.024 3112.34,680.015 3100.66,678.861C3067.36,723.258 3029.54,763.619 2987.2,799.944C2944.85,836.269 2898.41,865.242 2847.89,886.864C2797.36,908.486 2742.6,919.297 2683.61,919.297ZM3050.72,647.726C3071.16,617.167 3090.44,585.743 3108.54,553.454C3126.65,521.165 3144.76,488.877 3162.87,456.588C3153.52,446.209 3142.28,435.254 3129.13,423.723C3115.99,412.191 3102.12,402.533 3087.52,394.749C3072.91,386.965 3058.02,383.073 3042.83,383.073C3039.33,383.073 3035.68,383.65 3031.88,384.803C3028.08,385.956 3024.43,386.533 3020.93,386.533C3018.59,386.533 3017.42,385.38 3017.42,383.073C3017.42,379.037 3020.64,376.01 3027.06,373.992C3033.49,371.974 3040.49,370.389 3048.09,369.235C3055.68,368.082 3060.65,367.506 3062.98,367.506C3085.18,367.506 3106.5,373.271 3126.94,384.803C3147.39,396.335 3165.49,409.02 3181.26,422.858C3192.36,402.677 3206.09,378.893 3222.44,351.505C3238.8,324.118 3256.91,295.577 3276.77,265.883C3296.62,236.188 3317.51,207.648 3339.41,180.26C3361.32,152.872 3383.95,129.088 3407.31,108.907C3430.68,88.727 3453.75,74.312 3476.53,65.664L3430.97,64.799C3419.29,64.222 3407.31,64.078 3395.05,64.366C3382.78,64.655 3370.81,65.375 3359.12,66.528C3323.49,67.682 3287.86,70.276 3252.23,74.312C3216.6,78.348 3181.26,84.979 3146.22,94.204C3110.59,103.43 3075.4,116.259 3040.64,132.692C3005.89,149.124 2974.2,169.449 2945.58,193.665C2916.96,217.882 2894.18,246.135 2877.24,278.423C2860.3,310.712 2851.83,347.325 2851.83,388.263C2851.83,428.624 2860.74,465.957 2878.55,500.264C2896.37,534.571 2920.32,564.265 2950.4,589.347C2980.48,614.428 3013.92,633.888 3050.72,647.726ZM3184.77,670.213C3219.82,670.213 3256.03,666.177 3293.41,658.104C3278.81,635.041 3265.08,611.833 3252.23,588.482C3239.38,565.13 3225.37,542.499 3210.18,520.589C3192.66,543.652 3176.15,567.292 3160.68,591.509C3145.2,615.725 3128.99,639.654 3112.05,663.294C3123.73,665.6 3135.7,667.33 3147.97,668.483C3160.24,669.636 3172.5,670.213 3184.77,670.213Z" style="fill:rgb(248,248,251);fill-rule:nonzero;stroke:rgb(45,31,234);stroke-width:5.04px;"/>
        <path d="M4262.44,991.082C4233.24,991.082 4208.85,979.983 4189.28,957.784C4169.72,935.586 4159.93,906.036 4159.93,869.134C4159.93,859.332 4160.81,849.242 4162.56,838.864C4142.7,841.17 4122.55,842.035 4102.11,841.458C4066.47,840.882 4033.91,834.683 4004.41,822.863C3974.92,811.043 3949.65,795.332 3928.63,775.728C3907.6,756.124 3891.83,734.358 3881.31,710.429C3870.8,686.501 3866.42,662.429 3868.17,638.212C3871.09,598.428 3883.21,561.815 3904.53,528.373C3925.85,494.931 3953.16,465.237 3986.45,439.29C4019.75,413.344 4055.67,392.299 4094.22,376.154C4086.63,366.929 4080.49,356.551 4075.82,345.019C4071.15,333.487 4068.81,321.091 4068.81,307.829C4068.81,301.487 4069.4,294.568 4070.56,287.072C4071.73,279.576 4073.78,272.081 4076.7,264.585L4078.45,260.261C4029.97,242.963 3994.78,221.197 3972.87,194.963C3950.97,168.728 3940.02,143.214 3940.02,118.421C3940.02,91.898 3950.82,68.979 3972.43,49.663C3994.05,30.348 4023.54,20.69 4060.93,20.69C4086.04,20.69 4114.23,26.312 4145.48,37.555C4176.73,48.798 4210.16,67.682 4245.8,94.204C4285.51,74.601 4327.57,59.609 4371.96,49.231C4416.35,38.852 4458.99,33.663 4499.88,33.663C4546.61,33.663 4583.41,42.456 4610.28,60.042C4637.15,77.628 4650.58,99.105 4650.58,124.475C4650.58,137.737 4646.2,151.863 4637.44,166.854C4623.42,189.918 4604,209.233 4579.17,224.801C4554.35,240.369 4526.75,252.909 4496.38,262.423C4466,271.937 4435.34,279.288 4404.38,284.477C4414.31,306.388 4421.9,329.163 4427.16,352.803C4432.42,376.443 4435.05,400.083 4435.05,423.723L4435.05,436.263C4435.05,440.588 4434.75,445.056 4434.17,449.669C4444.1,445.633 4453.88,442.462 4463.52,440.155C4473.16,437.849 4482.07,436.696 4490.24,436.696C4506.01,436.696 4518.86,440.876 4528.79,449.237C4538.72,457.597 4543.69,471.579 4543.69,491.183C4543.69,500.408 4542.52,510.643 4540.18,521.886C4537.85,533.13 4533.76,545.959 4527.92,560.373C4516.24,589.779 4499.88,618.32 4478.85,645.996C4457.82,673.672 4437.97,696.447 4419.27,714.321C4385.98,746.034 4348.6,772.412 4307.13,793.458C4265.65,814.503 4222.14,828.773 4176.58,836.269L4173.95,856.161C4173.37,859.044 4173.07,862.071 4173.07,865.242L4173.07,874.324C4173.07,907.766 4181.69,933.135 4198.92,950.433C4216.15,967.73 4237.33,976.379 4262.44,976.379C4276.46,976.379 4291.36,973.496 4307.13,967.73C4322.9,961.965 4338.67,953.316 4354.44,941.784C4356.77,940.631 4358.23,940.054 4358.82,940.054C4361.74,940.054 4363.78,941.496 4364.95,944.379C4366.12,947.262 4365.24,949.856 4362.32,952.163C4344.8,965.424 4327.57,975.226 4310.63,981.568C4293.69,987.911 4277.63,991.082 4262.44,991.082ZM4398.25,269.775C4442.05,261.126 4479,248.008 4509.08,230.423C4539.16,212.837 4561.8,193.377 4576.98,172.043C4592.17,150.71 4599.76,130.818 4599.76,112.367C4599.76,93.916 4592.02,78.348 4576.55,65.664C4561.07,52.979 4536.97,46.636 4504.26,46.636C4465.13,46.636 4424.82,52.258 4383.35,63.501C4341.88,74.745 4303.91,91.033 4269.45,112.367C4277.05,118.133 4284.64,124.475 4292.23,131.394C4299.82,138.313 4307.42,145.809 4315.01,153.881C4348.89,186.17 4376.64,224.801 4398.25,269.775ZM4082.83,249.017C4095.68,218.458 4115.25,190.638 4141.53,165.557C4167.82,140.475 4197.9,118.998 4231.78,101.123C4203.16,81.52 4175.85,67.682 4149.86,59.609C4123.86,51.537 4100.06,47.501 4078.45,47.501C4043.99,47.501 4016.39,55.862 3995.65,72.583C3974.92,89.304 3964.55,109.484 3964.55,133.124C3964.55,153.304 3973.89,173.917 3992.59,194.963C4011.28,216.008 4041.36,234.026 4082.83,249.017ZM4298.36,279.288C4313.55,279.288 4328.45,278.712 4343.05,277.558C4357.65,276.405 4371.67,274.675 4385.1,272.369C4374.59,251.612 4362.62,232.008 4349.18,213.558C4335.75,195.107 4321.44,178.098 4306.25,162.53C4298.07,154.458 4289.9,147.25 4281.72,140.908C4273.54,134.565 4265.95,127.935 4258.94,121.016L4257.19,119.286C4230.32,137.16 4206.66,158.35 4186.22,182.854C4165.77,207.359 4151.46,234.891 4143.28,265.45C4164.9,269.486 4188.55,272.802 4214.25,275.396C4239.95,277.991 4267.99,279.288 4298.36,279.288ZM4133.65,823.296C4138.9,823.296 4144.16,823.152 4149.42,822.863C4154.68,822.575 4160.22,822.143 4166.07,821.566C4169.57,800.232 4175.12,778.899 4182.71,757.565C4190.31,736.232 4199.07,715.186 4209,694.429C4206.08,695.006 4203.01,695.294 4199.8,695.294L4190.6,695.294C4156.72,695.294 4127.95,687.078 4104.3,670.645C4080.64,654.212 4068.81,632.446 4068.81,605.347C4068.81,592.662 4071.73,579.689 4077.57,566.427C4078.16,564.121 4080.2,562.968 4083.71,562.968C4086.04,562.968 4087.94,563.689 4089.4,565.13C4090.86,566.572 4091.01,568.734 4089.84,571.617C4087.5,577.382 4085.75,583.148 4084.58,588.914C4083.41,594.68 4082.83,600.158 4082.83,605.347C4082.83,628.41 4093.05,647.005 4113.5,661.131C4133.94,675.258 4159.35,682.321 4189.72,682.321C4194.39,682.321 4198.92,682.177 4203.3,681.888C4207.68,681.6 4211.92,681.168 4216.01,680.591C4237.62,637.924 4263.61,598.572 4293.98,562.535C4324.36,526.499 4356.19,497.237 4389.48,474.75C4400,467.831 4410.51,461.777 4421.03,456.588C4421.61,451.399 4422.05,446.354 4422.34,441.453C4422.63,436.552 4422.78,431.507 4422.78,426.317C4422.78,402.677 4420.01,378.893 4414.46,354.965C4408.91,331.037 4401.17,308.117 4391.24,286.207C4374.88,288.514 4358.82,290.099 4343.05,290.964C4327.28,291.829 4312.38,292.261 4298.36,292.261C4267.99,292.261 4239.66,290.964 4213.38,288.369C4187.09,285.775 4162.85,282.171 4140.66,277.558C4140.07,281.595 4139.34,285.775 4138.47,290.099C4137.59,294.424 4136.86,298.892 4136.28,303.505C4134.52,324.838 4137.15,343.001 4144.16,357.992C4164.61,351.65 4185.05,346.893 4205.49,343.722C4225.94,340.55 4245.8,338.965 4265.07,338.965C4291.94,338.965 4311.51,342.568 4323.77,349.776C4336.04,356.983 4342.17,365.488 4342.17,375.29C4342.17,387.974 4332.83,400.515 4314.14,412.912C4295.44,425.308 4269.74,431.507 4237.03,431.507C4232.94,431.507 4228.71,431.362 4224.33,431.074C4219.95,430.786 4215.42,430.353 4210.75,429.777C4165.19,425.164 4129.27,410.461 4102.98,385.668C4067.93,402.389 4039.17,423.579 4016.68,449.237C3994.19,474.895 3977.4,502.715 3966.3,532.697C3955.2,562.68 3949.65,592.662 3949.65,622.644C3949.65,657.816 3956.81,690.681 3971.12,721.24C3985.43,751.799 4006.31,776.448 4033.76,795.187C4061.22,813.926 4094.51,823.296 4133.65,823.296ZM4250.18,415.939C4270.62,415.939 4288.87,412.191 4304.94,404.695C4321,397.2 4329.03,387.398 4329.03,375.29C4329.03,368.371 4325.23,363.325 4317.64,360.154C4310.05,356.983 4301.28,354.821 4291.36,353.668C4281.43,352.514 4273.25,351.938 4266.82,351.938C4221.85,351.938 4182.71,357.415 4149.42,368.371C4159.93,385.091 4174.68,397.2 4193.66,404.695C4212.65,412.191 4231.48,415.939 4250.18,415.939ZM4179.21,818.971C4212.5,813.206 4245.21,802.251 4277.34,786.106C4309.46,769.962 4339.25,749.925 4366.7,725.997C4394.16,702.069 4418.69,675.834 4440.3,647.293C4461.91,618.752 4478.85,589.202 4491.12,558.643C4503.97,526.355 4510.4,501.562 4510.4,484.264C4510.4,461.201 4500.47,449.669 4480.61,449.669C4467.76,449.669 4451.98,454.282 4433.29,463.507C4430.96,481.381 4426.72,498.967 4420.59,516.265C4414.46,533.562 4406.42,550.571 4396.49,567.292C4373.71,605.347 4346.99,634.32 4316.33,654.212C4285.66,674.105 4255.43,686.645 4225.64,691.835C4214.55,713.168 4205.2,734.646 4197.61,756.268C4190.01,777.89 4183.88,798.791 4179.21,818.971ZM4232.65,677.132C4260.11,670.789 4287.41,658.248 4314.57,639.509C4341.73,620.77 4365.54,594.392 4385.98,560.373C4402.34,532.697 4413.14,503.003 4418.4,471.291L4398.25,483.399C4364.37,503.58 4333.41,531.256 4305.37,566.427C4277.34,601.599 4253.1,638.5 4232.65,677.132Z" style="fill:rgb(248,248,251);fill-rule:nonzero;stroke:rgb(45,31,234);stroke-width:5.04px;"/>
        <path d="M5156.12,927.946C5130.42,927.946 5101.95,925.063 5070.7,919.297C5039.45,913.531 5006.59,904.594 4972.13,892.486C4942.92,882.108 4914.45,869.423 4886.7,854.431C4858.96,839.44 4831.65,823.872 4804.78,807.728C4775.58,819.836 4744.33,829.062 4711.03,835.404C4677.74,841.747 4642.99,844.918 4606.77,844.918C4594.51,844.918 4582.68,844.485 4571.29,843.62C4559.9,842.756 4549.24,841.747 4539.31,840.593C4502.51,857.314 4464.25,869.134 4424.53,876.053C4413.43,877.783 4402.04,879.225 4390.36,880.378C4378.68,881.531 4367,882.108 4355.32,882.108C4329.03,882.108 4304.5,878.792 4281.72,872.161C4258.94,865.531 4240.39,854.431 4226.08,838.864C4211.77,823.296 4204.62,801.962 4204.62,774.863C4204.62,765.637 4205.49,756.412 4207.24,747.187C4208.41,743.727 4210.46,741.997 4213.38,741.997C4216.88,741.997 4218.63,743.439 4218.63,746.322C4218.63,749.205 4218.49,752.232 4218.2,755.403C4217.9,758.574 4217.76,761.601 4217.76,764.484C4217.76,789.277 4224.91,809.458 4239.22,825.026C4253.53,840.593 4272.08,852.125 4294.86,859.621C4317.64,867.116 4341.59,870.864 4366.7,870.864C4395.33,870.864 4422.78,866.828 4449.06,858.756C4458.99,855.873 4468.78,852.413 4478.41,848.377C4488.05,844.341 4497.54,839.729 4506.89,834.539C4471.26,825.891 4441.62,813.782 4417.96,798.214C4394.3,782.647 4376.78,765.493 4365.39,746.754C4354,728.015 4348.31,709.997 4348.31,692.699C4348.31,671.942 4356.19,654.212 4371.96,639.509C4387.73,624.807 4410.81,617.455 4441.18,617.455C4462.21,617.455 4486.15,621.78 4513.02,630.428C4538.72,638.5 4564.28,647.726 4589.69,658.104C4615.1,668.483 4640.36,679.438 4665.47,690.97C4692.93,655.221 4718.63,617.743 4742.58,578.536C4766.53,539.328 4788.43,501.85 4808.29,466.102C4791.93,467.831 4775.58,468.696 4759.22,468.696C4699.06,468.696 4646.78,461.921 4602.39,448.372C4558,434.822 4521.2,416.804 4491.99,394.317C4462.79,371.83 4441.18,346.749 4427.16,319.073C4413.14,291.396 4406.13,263.432 4406.13,235.179C4406.13,201.738 4415.62,170.17 4434.61,140.475C4453.59,110.781 4481.63,86.709 4518.72,68.258C4555.81,49.807 4601.22,40.582 4654.96,40.582C4694.1,40.582 4733.09,46.636 4771.93,58.745C4810.77,70.853 4847.42,88.583 4881.89,111.934C4916.35,135.286 4945.85,163.395 4970.38,196.26C5004.84,147.827 5038.43,108.907 5071.14,79.502C5103.85,50.096 5134.8,31.357 5164.01,23.285C5175.69,20.402 5185.91,18.96 5194.67,18.96C5216.28,18.96 5235.27,25.591 5251.62,38.852C5267.98,52.114 5276.16,73.447 5276.16,102.853C5276.16,147.827 5265.79,189.053 5245.05,226.531C5224.32,264.009 5196.57,297.162 5161.82,325.992C5127.06,354.821 5088.66,379.326 5046.6,399.506C5048.36,415.65 5049.23,431.795 5049.23,447.939C5049.23,519.436 5032.15,584.302 4997.98,642.537C4963.81,700.772 4916.35,747.475 4855.6,782.647C4878.97,793.025 4902.33,803.26 4925.69,813.35C4949.06,823.44 4972.71,832.521 4996.66,840.593C5027.62,851.549 5058.58,859.909 5089.53,865.675C5120.49,871.441 5149.4,874.324 5176.27,874.324C5215.99,874.324 5248.56,867.837 5273.97,854.864C5299.37,841.891 5312.08,821.278 5312.08,793.025C5312.08,786.106 5311.35,778.899 5309.89,771.403C5308.43,763.908 5305.94,756.124 5302.44,748.052C5302.44,747.475 5302.3,747.043 5302,746.754C5301.71,746.466 5301.56,746.034 5301.56,745.457C5301.56,740.844 5303.9,738.538 5308.57,738.538C5310.91,738.538 5312.95,739.979 5314.71,742.862C5324.05,765.349 5328.73,786.683 5328.73,806.863C5328.73,844.341 5313.39,873.891 5282.73,895.513C5252.06,917.135 5209.86,927.946 5156.12,927.946ZM5044.85,385.668C5085.74,365.488 5122.54,341.271 5155.25,313.018C5187.96,284.766 5214.1,253.054 5233.66,217.882C5253.23,182.71 5263.01,144.367 5263.01,102.853C5263.01,78.637 5256.3,60.474 5242.86,48.366C5229.43,36.258 5213.66,30.204 5195.55,30.204C5183.87,30.204 5172.19,32.798 5160.5,37.987C5134.8,49.519 5107.79,72.583 5079.46,107.178C5051.13,141.773 5022.65,183.287 4994.03,231.72C4999.87,240.945 5004.98,250.459 5009.37,260.261C5013.75,270.063 5017.69,280.153 5021.19,290.532C5032.29,322.244 5040.18,353.956 5044.85,385.668ZM4759.22,455.723C4768.57,455.723 4778.06,455.291 4787.7,454.426C4797.34,453.561 4806.83,452.84 4816.17,452.264L4855.6,381.344C4873.12,349.632 4890.65,319.793 4908.17,291.829C4925.69,263.865 4942.63,237.774 4958.99,213.558C4936.21,179.539 4908.46,150.71 4875.75,127.07C4843.04,103.43 4807.7,85.267 4769.74,72.583C4731.77,59.898 4693.51,53.555 4654.96,53.555C4609.4,53.555 4570.85,62.204 4539.31,79.502C4507.77,96.799 4483.67,119.286 4467.03,146.962C4450.38,174.638 4442.05,204.332 4442.05,236.044C4442.05,262.567 4448.33,288.802 4460.89,314.748C4473.45,340.694 4492.73,364.334 4518.72,385.668C4544.71,407.002 4577.57,424.011 4617.29,436.696C4657.01,449.381 4704.32,455.723 4759.22,455.723ZM4890.65,440.155C4912.84,434.966 4935.19,428.624 4957.67,421.128C4980.16,413.632 5002.21,405.272 5023.82,396.047C5020.32,362.605 5012.43,328.586 5000.17,293.991C4997.83,287.072 4995.06,280.153 4991.84,273.234C4988.63,266.315 4985.56,259.684 4982.64,253.342C4968.04,278.712 4953.73,305.523 4939.71,333.775C4925.69,362.028 4911.97,391.434 4898.53,421.993L4890.65,440.155ZM4835.45,772.268C4894.44,738.25 4941.03,692.123 4975.2,633.888C5009.37,575.653 5026.45,511.652 5026.45,441.885C5026.45,436.696 5026.31,431.362 5026.01,425.885C5025.72,420.407 5025.28,414.786 5024.7,409.02C5001.92,419.398 4978.7,428.335 4955.04,435.831C4931.39,443.327 4907.59,449.381 4883.64,453.993C4862.03,501.273 4836.76,546.968 4807.85,591.076C4778.94,635.185 4746.96,675.69 4711.91,712.592C4732.35,722.394 4752.94,732.34 4773.68,742.43C4794.42,752.52 4815.01,762.466 4835.45,772.268ZM4523.54,824.161C4546.9,809.746 4569.1,792.737 4590.12,773.133C4611.15,753.529 4631.3,732.195 4650.58,709.132C4627.22,695.294 4603.85,682.609 4580.49,671.078C4557.12,659.546 4533.47,650.032 4509.52,642.537C4488.49,636.194 4470.68,633.023 4456.07,633.023C4431.54,633.023 4412.99,639.221 4400.44,651.618C4387.88,664.014 4381.6,679.15 4381.6,697.024C4381.6,712.592 4386.71,728.88 4396.93,745.889C4407.15,762.899 4422.78,778.322 4443.81,792.16C4464.84,805.998 4491.41,816.665 4523.54,824.161ZM4602.39,831.945C4670.73,831.945 4732.35,820.125 4787.26,796.485L4690.88,734.214C4671.02,753.241 4650.29,770.827 4628.68,786.971C4607.06,803.115 4584.28,817.53 4560.34,830.215C4566.76,830.791 4573.48,831.224 4580.49,831.512C4587.5,831.801 4594.8,831.945 4602.39,831.945Z" style="fill:rgb(248,248,251);fill-rule:nonzero;stroke:rgb(45,31,234);stroke-width:5.04px;"/>
        <path d="M4994.91,865.675C4984.4,865.675 4973.3,864.81 4961.62,863.08C4914.3,856.161 4873.56,838.287 4839.39,809.458C4805.22,780.629 4778.94,745.024 4760.54,702.646C4742.14,660.267 4732.94,615.437 4732.94,568.157C4732.94,529.526 4739.36,492.048 4752.21,455.723C4764.48,420.551 4780.25,386.245 4799.53,352.803C4818.8,319.361 4843.33,287.937 4873.12,258.531C4902.91,229.125 4939.57,202.891 4983.08,179.827C5026.6,156.764 5079.02,137.881 5140.35,123.178C5201.68,108.475 5273.82,99.394 5356.76,95.934C5364.94,95.358 5374.72,95.069 5386.11,95.069L5468.03,95.069C5483.22,95.069 5495.19,95.358 5503.96,95.934C5508.63,95.934 5510.97,98.241 5510.97,102.853C5510.97,106.889 5508.63,108.907 5503.96,108.907C5482.93,109.484 5465.99,116.691 5453.14,130.529C5440.29,144.367 5427.44,162.241 5414.59,184.152C5407.58,198.566 5401.74,214.999 5397.07,233.45C5426.86,242.675 5454.6,257.234 5480.3,277.126C5506,297.018 5527.9,319.937 5546.01,345.884C5569.96,305.523 5594.93,266.315 5620.92,228.26C5646.92,190.206 5673.64,155.611 5701.09,124.475C5733.8,87.574 5766.22,60.907 5798.35,44.474C5830.47,28.041 5859.38,19.825 5885.09,19.825C5914.87,19.825 5938.97,29.195 5957.37,47.934C5975.77,66.673 5984.97,91.898 5984.97,123.61C5984.97,157.052 5972.26,196.26 5946.85,241.234C5921.44,286.207 5878.95,333.199 5819.37,382.209C5789.58,406.425 5755.85,427.903 5718.18,446.642C5680.5,465.381 5641.22,481.093 5600.33,493.778L5600.33,506.751C5600.33,545.382 5594.49,575.364 5582.81,596.698C5571.13,618.032 5556.96,632.735 5540.32,640.807C5523.67,648.879 5508.05,652.915 5493.44,652.915C5482.35,652.915 5472.85,651.329 5464.97,648.158C5457.08,644.987 5452.56,641.383 5451.39,637.347L5451.39,635.618C5451.39,632.735 5452.85,631.149 5455.77,630.861C5458.69,630.572 5460.44,631.87 5461.03,634.753C5461.61,635.329 5464.82,636.771 5470.66,639.077C5476.5,641.383 5484.1,642.537 5493.44,642.537C5498.12,642.537 5503.08,642.104 5508.34,641.239C5513.59,640.374 5519.14,638.789 5524.98,636.482C5541.34,630.14 5556.23,617.455 5569.67,598.428C5583.1,579.401 5589.82,548.842 5589.82,506.751L5589.82,497.237C5554.77,507.616 5518.56,515.4 5481.18,520.589C5475.34,529.238 5469.49,537.742 5463.65,546.103C5457.81,554.463 5451.68,562.68 5445.25,570.752C5418.39,608.23 5391.22,642.248 5363.77,672.807C5336.32,703.366 5309.6,727.439 5283.6,745.024C5257.61,762.61 5233.22,770.827 5210.44,769.673C5205.77,769.673 5203.44,767.944 5203.44,764.484C5203.44,762.178 5204.6,760.16 5206.94,758.43C5229.72,742.862 5248.27,722.682 5262.57,697.889C5276.89,673.096 5288.28,645.275 5296.75,614.428C5305.22,583.581 5311.79,552.013 5316.46,519.724C5278.49,513.958 5243.15,504.3 5210.44,490.751C5177.73,477.201 5151.74,459.471 5132.47,437.561C5113.19,415.65 5104.43,389.992 5106.18,360.587C5108.52,327.721 5119.03,300.91 5137.72,280.153C5156.41,259.396 5179.93,244.117 5208.25,234.315C5236.58,224.513 5266.23,219.612 5297.18,219.612C5308.87,219.612 5320.26,220.188 5331.35,221.341C5342.45,222.495 5353.55,224.224 5364.65,226.531C5367.57,217.882 5371.07,210.386 5375.16,204.044C5383.92,189.053 5396.19,172.188 5411.96,153.449C5427.73,134.71 5445.25,121.304 5464.53,113.232C5450.51,112.079 5436.35,111.214 5422.04,110.637C5407.73,110.061 5393.27,109.772 5378.67,109.772C5315,109.772 5252.06,116.259 5189.85,129.232C5127.65,142.205 5069.24,162.674 5014.62,190.638C4960.01,218.603 4911.97,255.072 4870.49,300.045C4829.02,345.019 4797.19,399.218 4774.99,462.642C4761.56,501.273 4754.84,539.904 4754.84,578.536C4754.84,622.356 4763.17,663.87 4779.81,703.078C4796.46,742.286 4820.26,775.151 4851.22,801.674C4882.18,828.197 4919.56,844.63 4963.37,850.972C4968.62,851.549 4973.88,851.981 4979.14,852.269C4984.4,852.558 4989.65,852.702 4994.91,852.702C5032.29,852.702 5066.75,844.053 5098.3,826.755C5129.84,809.458 5150.57,783.512 5160.5,748.916C5161.09,746.034 5163.13,744.592 5166.64,744.592C5171.89,744.592 5173.94,747.187 5172.77,752.376C5165.76,777.746 5153.2,798.791 5135.1,815.512C5116.99,832.233 5095.67,844.774 5071.14,853.134C5046.6,861.495 5021.19,865.675 4994.91,865.675ZM5599.46,482.534C5671.89,459.471 5736.72,425.452 5793.97,380.479C5834.85,348.19 5868.29,315.613 5894.28,282.748C5920.28,249.882 5939.55,218.891 5952.11,189.773C5964.67,160.656 5970.95,135.142 5970.95,113.232C5970.95,94.204 5966.28,79.069 5956.93,67.826C5947.58,56.582 5934.15,50.961 5916.63,50.961C5897.94,50.961 5874.72,58.456 5846.97,73.447C5819.23,88.439 5787.54,113.52 5751.91,148.692C5720.95,179.827 5690.29,216.152 5659.91,257.666C5629.54,299.18 5599.75,341.848 5570.55,385.668C5578.14,400.659 5584.42,416.371 5589.38,432.804C5594.35,449.237 5597.7,465.813 5599.46,482.534ZM5318.21,508.481C5322.88,477.345 5326.53,446.642 5329.16,416.371C5331.79,386.1 5334.86,358.857 5338.36,334.64C5341.28,316.19 5344.5,298.604 5348,281.883C5351.51,265.162 5355.89,249.594 5361.14,235.179C5344.79,231.72 5327.56,229.99 5309.45,229.99C5282,229.99 5255.57,234.459 5230.16,243.396C5204.75,252.333 5183.87,266.459 5167.51,285.775C5151.16,305.09 5141.81,330.028 5139.48,360.587C5137.72,387.11 5144.44,410.461 5159.63,430.642C5174.81,450.822 5196.13,467.399 5223.59,480.372C5251.04,493.345 5282.58,502.715 5318.21,508.481ZM5377.79,514.535C5389.47,515.111 5401.3,515.255 5413.27,514.967C5425.25,514.679 5437.08,513.958 5448.76,512.805C5463.94,488.012 5478.99,462.21 5493.88,435.398C5508.78,408.587 5524.4,381.92 5540.76,355.397C5522.65,330.028 5501.18,307.397 5476.36,287.505C5451.53,267.612 5424.52,253.054 5395.31,243.828C5390.06,271.504 5386.84,301.775 5385.68,334.64C5384.51,367.506 5383.78,399.65 5383.48,431.074C5383.19,462.498 5381.3,490.318 5377.79,514.535ZM5489.06,508.481C5506,505.598 5522.79,502.426 5539.44,498.967C5556.09,495.507 5572.59,491.183 5588.94,485.994C5586.61,455.435 5578.14,425.452 5563.53,396.047L5489.06,508.481ZM5274.4,729.024C5300.1,719.799 5326.97,696.303 5355.01,658.537C5383.05,620.77 5412.25,576.229 5442.63,524.913C5431.53,525.49 5420.43,525.922 5409.33,526.211C5398.23,526.499 5387.43,526.355 5376.91,525.778C5371.07,562.68 5360.56,598.716 5345.37,633.888C5330.19,669.059 5306.53,700.772 5274.4,729.024Z" style="fill:rgb(248,248,251);fill-rule:nonzero;stroke:rgb(45,31,234);stroke-width:5.04px;"/>
        <path d="M5716.86,795.62C5689.99,795.62 5665.17,791.872 5642.39,784.376C5619.61,776.881 5601.36,764.052 5587.63,745.889C5573.9,727.727 5567.04,702.79 5567.04,671.078C5567.04,642.248 5574.93,614.572 5590.7,588.049C5606.47,561.526 5627.2,537.166 5652.9,514.967C5678.6,492.769 5706.06,473.309 5735.26,456.588C5742.27,453.128 5746.94,451.399 5749.28,451.399C5751.62,451.399 5752.78,452.264 5752.78,453.993C5752.78,456.3 5749.86,459.471 5744.02,463.507C5689.12,494.643 5649.55,528.229 5625.3,564.265C5601.06,600.302 5588.94,634.176 5588.94,665.888C5588.94,699.33 5601.21,727.583 5625.74,750.646C5650.28,773.71 5682.98,785.241 5723.87,785.241C5746.07,785.241 5769.43,781.493 5793.97,773.998C5810.9,768.809 5826.09,761.745 5839.53,752.808C5852.96,743.871 5865.81,733.06 5878.08,720.376C5861.72,698.465 5849.31,672.519 5840.84,642.537C5832.37,612.554 5828.14,581.13 5828.14,548.265C5828.14,521.742 5831.06,494.931 5836.9,467.831C5842.74,440.732 5851.21,414.786 5862.31,389.992C5854.13,366.929 5850.04,342.712 5850.04,317.343C5850.04,278.712 5859.82,239.936 5879.39,201.017C5898.96,162.097 5929.77,130.241 5971.82,105.448C6004.53,85.844 6038.56,72.583 6073.9,65.664C6109.23,58.745 6144.72,55.285 6180.35,55.285C6210.14,55.285 6239.64,56.871 6268.84,60.042C6298.05,63.213 6326.08,66.24 6352.95,69.123C6371.06,51.249 6389.17,37.555 6407.27,28.041C6425.38,18.528 6443.78,13.771 6462.47,13.771C6475.91,13.771 6485.84,15.789 6492.26,19.825C6498.69,23.861 6501.9,28.762 6501.9,34.528C6501.9,42.024 6497.52,49.807 6488.76,57.88C6479.99,65.952 6468.61,72.006 6454.59,76.042C6441.74,79.502 6428.16,81.52 6413.85,82.096C6399.53,82.673 6386.54,82.673 6374.86,82.096C6357.92,101.7 6341.12,124.043 6324.48,149.124C6307.83,174.206 6292.21,199.719 6277.6,225.666C6308.56,236.044 6331.63,251.324 6346.82,271.504C6362.01,291.685 6369.6,313.595 6369.6,337.235C6369.6,362.028 6360.84,386.965 6343.32,412.047C6325.79,437.128 6299.65,458.75 6264.9,476.913C6230.15,495.075 6186.48,506.463 6133.91,511.075C6107.05,556.625 6076.67,598.86 6042.79,637.78C6008.91,676.699 5970.95,709.132 5928.89,735.078C5945.25,746.034 5963.5,754.826 5983.65,761.457C6003.8,768.088 6026.15,771.403 6050.68,771.403C6076.96,771.403 6101.79,768.376 6125.15,762.322C6148.52,756.268 6168.38,748.34 6184.73,738.538C6201.09,728.736 6211.6,718.357 6216.27,707.402C6218.03,704.519 6219.78,703.078 6221.53,703.078C6225.03,703.078 6225.91,705.961 6224.16,711.727C6218.9,725.565 6207.51,738.105 6189.99,749.349C6172.46,760.592 6151.44,769.385 6126.9,775.728C6102.37,782.07 6076.96,785.241 6050.68,785.241C6023.23,785.241 5998.26,781.349 5975.77,773.565C5953.28,765.782 5933.27,755.547 5915.75,742.862C5895.89,753.817 5875.3,763.331 5853.98,771.403C5832.66,779.475 5810.03,785.53 5786.08,789.566C5774.98,791.295 5763.59,792.737 5751.91,793.89C5740.23,795.043 5728.55,795.62 5716.86,795.62ZM6384.49,71.718C6421.88,73.447 6448.89,69.844 6465.54,60.907C6482.19,51.97 6490.51,43.753 6490.51,36.258C6490.51,27.609 6483.5,23.285 6469.48,23.285C6464.81,23.285 6457.51,24.726 6447.58,27.609C6437.06,31.068 6426.55,36.546 6416.04,44.042C6405.52,51.537 6395.01,60.763 6384.49,71.718ZM5881.58,373.56C5900.86,343.577 5925.24,316.766 5954.74,293.126C5984.24,269.486 6019.72,250.603 6061.19,236.477C6102.66,222.35 6150.85,215.287 6205.76,215.287L6223.28,215.287C6229.12,215.287 6234.96,215.576 6240.81,216.152C6257.74,189.053 6274.83,163.827 6292.06,140.475C6309.29,117.124 6326.38,96.511 6343.32,78.637C6326.38,76.907 6309.15,75.465 6291.62,74.312C6274.1,73.159 6256.57,72.583 6239.05,72.583C6199.33,72.583 6159.18,76.763 6118.58,85.123C6077.98,93.484 6037.83,109.484 5998.11,133.124C5957.22,156.764 5926.41,186.314 5905.68,221.774C5884.94,257.234 5874.57,292.261 5874.57,326.856C5874.57,342.424 5876.91,357.992 5881.58,373.56ZM6069.08,500.697C6097.7,455.723 6125.59,409.74 6152.75,362.749C6179.91,315.757 6206.63,271.216 6232.92,229.125C6227.66,228.549 6222.55,228.26 6217.59,228.26L6203.13,228.26C6149.98,228.26 6102.96,235.612 6062.07,250.315C6021.18,265.018 5986.28,284.477 5957.37,308.694C5928.45,332.911 5904.94,360.01 5886.84,389.992C5899.1,418.245 5920.42,442.606 5950.8,463.075C5981.17,483.543 6020.6,496.084 6069.08,500.697ZM6140.92,499.832C6188.24,494.066 6226.93,482.967 6257.01,466.534C6287.1,450.101 6309.29,430.786 6323.6,408.587C6337.91,386.389 6345.07,364.046 6345.07,341.559C6345.07,319.649 6338.64,299.324 6325.79,280.585C6312.94,261.846 6294.54,247.576 6270.59,237.774C6247.23,280.441 6225.76,324.118 6206.2,368.803C6186.63,413.488 6164.87,457.165 6140.92,499.832ZM5900.86,710.862C5930.06,685.492 5958.1,655.51 5984.97,620.915C6011.84,586.32 6037.83,549.418 6062.94,510.21C6017.39,505.598 5979.13,493.634 5948.17,474.318C5917.21,455.002 5893.85,431.795 5878.08,404.695C5865.81,427.759 5856.61,451.543 5850.48,476.048C5844.34,500.553 5841.28,524.625 5841.28,548.265C5841.28,579.401 5846.24,609.095 5856.17,637.347C5866.1,665.6 5881,690.105 5900.86,710.862Z" style="fill:rgb(248,248,251);fill-rule:nonzero;stroke:rgb(45,31,234);stroke-width:5.04px;"/>
        <path d="M6112.01,977.244C6086.31,977.244 6062.07,973.929 6039.29,967.298C6016.51,960.667 5998.11,949.568 5984.09,934C5970.07,918.432 5963.06,897.387 5963.06,870.864C5963.06,861.639 5963.94,852.413 5965.69,843.188C5965.69,839.729 5967.74,837.999 5971.82,837.999C5975.33,837.999 5977.08,839.44 5977.08,842.323C5977.08,845.783 5976.94,848.954 5976.64,851.837C5976.35,854.72 5976.2,857.891 5976.2,861.35C5976.2,885.567 5983.36,905.459 5997.67,921.027C6011.98,936.595 6030.53,948.126 6053.31,955.622C6076.09,963.118 6100.03,966.865 6125.15,966.865C6153.19,966.865 6180.35,962.829 6206.63,954.757C6234.67,946.108 6261.54,933.279 6287.24,916.27C6312.94,899.261 6337.18,879.513 6359.96,857.026C6322.58,833.386 6293.67,800.809 6273.22,759.295C6252.78,717.781 6242.56,672.519 6242.56,623.509C6242.56,594.103 6246.65,562.68 6254.82,529.238C6267.09,484.264 6286.8,440.011 6313.96,396.479C6341.12,352.947 6378.51,312.442 6426.11,274.964C6473.72,237.486 6533.88,205.197 6606.6,178.098C6679.32,150.998 6767.08,131.106 6869.89,118.421C6883.32,116.691 6899.53,115.106 6918.51,113.664C6937.49,112.223 6956.04,110.781 6974.15,109.34C6992.26,107.898 7006.57,107.178 7017.08,107.178L7017.96,107.178C7020.88,107.178 7023.07,108.331 7024.53,110.637C7025.99,112.943 7026.72,115.538 7026.72,118.421C7026.72,123.034 7024.67,125.34 7020.58,125.34C6999.56,124.187 6982.62,130.241 6969.77,143.502C6956.92,156.764 6944.36,174.061 6932.09,195.395C6920.41,215.576 6913.26,241.089 6910.63,271.937C6908,302.784 6906.68,334.064 6906.68,365.776L6906.68,406.425C6906.68,419.687 6906.54,432.516 6906.25,444.912C6905.95,457.309 6905.22,468.696 6904.06,479.075C6897.63,539.04 6885.8,591.076 6868.57,635.185C6851.34,679.294 6826.37,714.321 6793.66,740.268C6783.15,748.916 6774.38,754.682 6767.38,757.565C6795.41,759.872 6820.24,754.25 6841.85,740.7C6863.46,727.15 6882.44,708.988 6898.8,686.213C6915.15,663.438 6929.03,639.221 6940.42,613.563C6951.81,587.905 6961.59,564.409 6969.77,543.076C6988.46,494.643 7005.84,446.642 7021.9,399.074C7037.96,351.505 7056.51,305.955 7077.53,262.423C7098.56,218.891 7125.14,178.098 7157.27,140.043C7189.39,101.988 7230.57,68.258 7280.8,38.852C7304.17,25.014 7327.53,14.924 7350.9,8.582C7374.26,2.239 7396.75,-0.932 7418.36,-0.932C7456.33,-0.932 7488.01,8.005 7513.42,25.879C7538.83,43.753 7551.53,67.393 7551.53,96.799C7551.53,119.862 7542.19,145.376 7523.5,173.341C7504.81,201.305 7473.27,230.567 7428.87,261.126C7425.37,264.009 7421.57,265.45 7417.48,265.45C7413.98,265.45 7412.23,263.72 7412.23,260.261C7412.23,256.801 7413.98,253.918 7417.48,251.612C7463.63,222.783 7496.48,195.107 7516.05,168.584C7535.62,142.061 7545.4,118.998 7545.4,99.394C7545.4,79.79 7537.37,64.222 7521.31,52.69C7505.24,41.159 7483.49,35.393 7456.03,35.393C7436.76,35.393 7415.29,38.852 7391.64,45.771C7367.98,52.69 7343.3,63.645 7317.6,78.637C7295.4,91.898 7271.6,110.205 7246.19,133.556C7220.79,156.908 7195.82,184.008 7171.28,214.855C7146.75,245.702 7124.26,279.288 7103.82,315.613C7083.96,350.785 7065.41,389.272 7048.18,431.074C7030.95,472.877 7015.03,512.517 7000.43,549.995C6992.26,572.482 6981.6,596.41 6968.45,621.78C6955.31,647.149 6939.54,671.078 6921.14,693.564C6902.74,716.051 6881.86,734.502 6858.49,748.916C6835.13,763.331 6808.85,770.538 6779.64,770.538C6773.8,770.538 6767.67,770.25 6761.24,769.673C6754.82,769.097 6748.39,767.944 6741.97,766.214C6739.05,766.214 6737.59,764.773 6737.59,761.89C6735.83,760.736 6735.54,759.872 6736.71,759.295L6737.59,759.295C6737.59,754.682 6740.21,752.953 6745.47,754.106C6766.5,739.115 6783.29,719.222 6795.85,694.429C6808.41,669.636 6818.05,642.104 6824.76,611.833C6831.48,581.563 6836.59,550.427 6840.1,518.427C6843.6,486.426 6846.38,455.291 6848.42,425.02C6850.46,394.749 6852.95,367.217 6855.87,342.424C6859.37,317.054 6863.9,293.126 6869.45,270.639C6875,248.153 6882.44,228.837 6891.79,212.693C6900.55,197.701 6912.67,181.989 6928.15,165.557C6943.63,149.124 6960.42,136.295 6978.53,127.07L6973.27,127.07C6972.69,127.646 6971.52,127.935 6969.77,127.935C6969.18,127.935 6968.6,127.791 6968.02,127.502C6967.43,127.214 6966.56,127.07 6965.39,127.07L6937.35,127.07C6916.32,132.259 6894.13,145.953 6870.76,168.151C6847.4,190.35 6823.74,219.323 6799.79,255.072C6775.84,290.82 6751.75,331.037 6727.51,375.722C6703.27,420.407 6679.76,467.831 6656.98,517.994L6644.71,544.805C6665.16,564.409 6680.78,587.473 6691.59,613.996C6702.39,640.519 6707.8,667.906 6707.8,696.159C6707.8,729.024 6700.2,760.592 6685.02,790.863C6669.83,821.134 6646.9,845.927 6616.24,865.242C6585.57,884.558 6546.29,894.216 6498.4,894.216C6479.7,894.216 6461.74,892.63 6444.51,889.459C6427.28,886.288 6411.07,881.819 6395.88,876.053C6364.34,900.27 6330.9,920.595 6295.56,937.027C6260.23,953.46 6222.7,964.847 6182.98,971.19C6171.88,972.92 6160.2,974.361 6147.93,975.514C6135.67,976.667 6123.69,977.244 6112.01,977.244ZM6367.85,849.242C6398.81,818.107 6427.43,783.656 6453.71,745.889C6479.99,708.123 6504.24,669.924 6526.43,631.293C6548.63,592.662 6569.07,556.625 6587.76,523.184C6566.74,512.805 6541.62,507.616 6512.41,507.616C6493.14,507.616 6474.3,513.382 6455.9,524.913C6437.5,536.445 6422.46,551.436 6410.78,569.887C6399.1,588.338 6393.26,608.518 6393.26,630.428C6393.26,641.383 6395.59,652.627 6400.27,664.158C6404.94,675.69 6410.93,685.492 6418.23,693.564C6425.53,701.636 6433.27,705.673 6441.44,705.673C6446.7,705.673 6449.33,707.979 6449.33,712.592C6449.33,716.628 6446.99,718.646 6442.32,718.646C6430.05,718.646 6419.25,713.601 6409.9,703.51C6400.56,693.42 6393.26,681.456 6388,667.618C6382.74,653.78 6380.11,641.383 6380.11,630.428C6380.11,606.212 6386.54,583.869 6399.39,563.4C6412.24,542.932 6428.89,526.499 6449.33,514.102C6469.77,501.706 6490.8,495.507 6512.41,495.507C6527.6,495.507 6542.06,496.949 6555.78,499.832C6569.51,502.715 6582.21,506.751 6593.9,511.94L6613.17,477.345C6663.4,386.821 6712.03,311.433 6759.05,251.18C6806.07,190.927 6850.32,150.421 6891.79,129.664C6839.8,133.701 6787.53,142.061 6734.96,154.746C6682.39,167.431 6631.86,184.44 6583.38,205.774C6534.9,227.107 6490.22,253.342 6449.33,284.477C6408.44,315.613 6373.25,351.794 6343.75,393.02C6314.26,434.245 6292.5,481.093 6278.48,533.562C6269.72,567.004 6265.34,600.158 6265.34,633.023C6265.34,679.15 6274.1,721.24 6291.62,759.295C6309.15,797.35 6334.55,827.332 6367.85,849.242ZM6494.01,884.702C6537.82,884.702 6574.18,875.333 6603.1,856.594C6632.01,837.855 6653.62,813.782 6667.93,784.376C6682.24,754.971 6689.4,724.123 6689.4,691.835C6689.4,667.041 6685.16,642.969 6676.69,619.617C6668.22,596.266 6655.52,575.653 6638.58,557.779C6609.96,617.167 6576.23,673.96 6537.38,728.159C6498.54,782.358 6454.3,829.062 6404.65,868.269C6418.08,873.459 6432.24,877.495 6447.14,880.378C6462.03,883.261 6477.66,884.702 6494.01,884.702Z" style="fill:rgb(248,248,251);fill-rule:nonzero;stroke:rgb(45,31,234);stroke-width:5.04px;"/>
    </g>
    <g transform="matrix(0.521951,0,0,0.660948,570.64,625.058)">
        <path d="M2666.06,977.244C2640.69,977.244 2616.76,973.929 2594.27,967.298C2571.79,960.667 2553.62,949.568 2539.79,934C2525.95,918.432 2519.03,897.387 2519.03,870.864C2519.03,861.639 2519.89,852.413 2521.62,843.188C2521.62,839.729 2523.64,837.999 2527.68,837.999C2531.14,837.999 2532.87,839.44 2532.87,842.323C2532.87,845.783 2532.72,848.954 2532.43,851.837C2532.15,854.72 2532,857.891 2532,861.35C2532,885.567 2539.07,905.459 2553.19,921.027C2567.32,936.595 2585.62,948.126 2608.11,955.622C2630.6,963.118 2654.24,966.865 2679.03,966.865C2706.71,966.865 2733.52,962.829 2759.47,954.757C2787.14,946.108 2813.66,933.279 2839.03,916.27C2864.4,899.261 2888.33,879.513 2910.82,857.026C2873.92,833.386 2845.38,800.809 2825.2,759.295C2805.01,717.781 2794.93,672.519 2794.93,623.509C2794.93,594.103 2798.96,562.68 2807.03,529.238C2819.14,484.264 2838.6,440.011 2865.41,396.479C2892.22,352.947 2929.12,312.442 2976.12,274.964C3023.11,237.486 3082.5,205.197 3154.28,178.098C3226.07,150.998 3312.7,131.106 3414.18,118.421C3427.44,116.691 3443.44,115.106 3462.18,113.664C3480.92,112.223 3499.22,110.781 3517.1,109.34C3534.97,107.898 3549.1,107.178 3559.48,107.178L3560.34,107.178C3563.22,107.178 3565.39,108.331 3566.83,110.637C3568.27,112.943 3568.99,115.538 3568.99,118.421C3568.99,123.034 3566.97,125.34 3562.93,125.34C3542.18,124.187 3525.46,130.241 3512.77,143.502C3500.09,156.764 3487.69,174.061 3475.58,195.395C3464.05,215.576 3456.99,241.089 3454.39,271.937C3451.8,302.784 3450.5,334.064 3450.5,365.776L3450.5,406.425C3450.5,419.687 3450.36,432.516 3450.07,444.912C3449.78,457.309 3449.06,468.696 3447.91,479.075C3441.56,539.04 3429.89,591.076 3412.88,635.185C3395.87,679.294 3371.22,714.321 3338.93,740.268C3328.55,748.916 3319.91,754.682 3312.99,757.565C3340.66,759.872 3365.17,754.25 3386.5,740.7C3407.83,727.15 3426.57,708.988 3442.72,686.213C3458.86,663.438 3472.56,639.221 3483.8,613.563C3495.04,587.905 3504.7,564.409 3512.77,543.076C3531.22,494.643 3548.38,446.642 3564.23,399.074C3580.09,351.505 3598.39,305.955 3619.15,262.423C3639.91,218.891 3666.14,178.098 3697.86,140.043C3729.57,101.988 3770.22,68.258 3819.8,38.852C3842.87,25.014 3865.93,14.924 3888.99,8.582C3912.06,2.239 3934.26,-0.932 3955.59,-0.932C3993.07,-0.932 4024.35,8.005 4049.43,25.879C4074.51,43.753 4087.05,67.393 4087.05,96.799C4087.05,119.862 4077.83,145.376 4059.38,173.341C4040.92,201.305 4009.79,230.567 3965.97,261.126C3962.51,264.009 3958.76,265.45 3954.72,265.45C3951.26,265.45 3949.54,263.72 3949.54,260.261C3949.54,256.801 3951.26,253.918 3954.72,251.612C4000.28,222.783 4032.71,195.107 4052.02,168.584C4071.34,142.061 4081,118.998 4081,99.394C4081,79.79 4073.07,64.222 4057.21,52.69C4041.36,41.159 4019.88,35.393 3992.78,35.393C3973.75,35.393 3952.56,38.852 3929.21,45.771C3905.86,52.69 3881.5,63.645 3856.13,78.637C3834.22,91.898 3810.72,110.205 3785.64,133.556C3760.56,156.908 3735.91,184.008 3711.69,214.855C3687.48,245.702 3665.28,279.288 3645.1,315.613C3625.49,350.785 3607.19,389.272 3590.18,431.074C3573.17,472.877 3557.46,512.517 3543.04,549.995C3534.97,572.482 3524.45,596.41 3511.47,621.78C3498.5,647.149 3482.93,671.078 3464.77,693.564C3446.61,716.051 3426,734.502 3402.93,748.916C3379.87,763.331 3353.92,770.538 3325.09,770.538C3319.33,770.538 3313.27,770.25 3306.93,769.673C3300.59,769.097 3294.25,767.944 3287.91,766.214C3285.02,766.214 3283.58,764.773 3283.58,761.89C3281.85,760.736 3281.56,759.872 3282.72,759.295L3283.58,759.295C3283.58,754.682 3286.18,752.953 3291.36,754.106C3312.12,739.115 3328.7,719.222 3341.09,694.429C3353.49,669.636 3363.01,642.104 3369.64,611.833C3376.27,581.563 3381.31,550.427 3384.77,518.427C3388.23,486.426 3390.97,455.291 3392.99,425.02C3395.01,394.749 3397.46,367.217 3400.34,342.424C3403.8,317.054 3408.27,293.126 3413.74,270.639C3419.22,248.153 3426.57,228.837 3435.8,212.693C3444.45,197.701 3456.41,181.989 3471.69,165.557C3486.97,149.124 3503.55,136.295 3521.42,127.07L3516.23,127.07C3515.66,127.646 3514.5,127.935 3512.77,127.935C3512.2,127.935 3511.62,127.791 3511.04,127.502C3510.47,127.214 3509.6,127.07 3508.45,127.07L3480.77,127.07C3460.01,132.259 3438.11,145.953 3415.04,168.151C3391.98,190.35 3368.63,219.323 3344.99,255.072C3321.35,290.82 3297.56,331.037 3273.63,375.722C3249.71,420.407 3226.5,467.831 3204.01,517.994L3191.9,544.805C3212.08,564.409 3227.51,587.473 3238.17,613.996C3248.84,640.519 3254.17,667.906 3254.17,696.159C3254.17,729.024 3246.68,760.592 3231.69,790.863C3216.7,821.134 3194.07,845.927 3163.8,865.242C3133.52,884.558 3094.75,894.216 3047.47,894.216C3029.02,894.216 3011.29,892.63 2994.28,889.459C2977.27,886.288 2961.27,881.819 2946.28,876.053C2915.14,900.27 2882.13,920.595 2847.25,937.027C2812.37,953.46 2775.32,964.847 2736.11,971.19C2725.16,972.92 2713.63,974.361 2701.52,975.514C2689.41,976.667 2677.59,977.244 2666.06,977.244ZM2918.6,849.242C2949.16,818.107 2977.41,783.656 3003.36,745.889C3029.31,708.123 3053.24,669.924 3075.14,631.293C3097.06,592.662 3117.24,556.625 3135.69,523.184C3114.93,512.805 3090.14,507.616 3061.31,507.616C3042.28,507.616 3023.68,513.382 3005.52,524.913C2987.36,536.445 2972.51,551.436 2960.98,569.887C2949.45,588.338 2943.68,608.518 2943.68,630.428C2943.68,641.383 2945.99,652.627 2950.6,664.158C2955.22,675.69 2961.12,685.492 2968.33,693.564C2975.54,701.636 2983.18,705.673 2991.25,705.673C2996.44,705.673 2999.04,707.979 2999.04,712.592C2999.04,716.628 2996.73,718.646 2992.12,718.646C2980.01,718.646 2969.34,713.601 2960.12,703.51C2950.89,693.42 2943.68,681.456 2938.49,667.618C2933.3,653.78 2930.71,641.383 2930.71,630.428C2930.71,606.212 2937.05,583.869 2949.74,563.4C2962.42,542.932 2978.86,526.499 2999.04,514.102C3019.22,501.706 3039.97,495.507 3061.31,495.507C3076.3,495.507 3090.57,496.949 3104.12,499.832C3117.67,502.715 3130.21,506.751 3141.74,511.94L3160.77,477.345C3210.35,386.821 3258.36,311.433 3304.77,251.18C3351.18,190.927 3394.86,150.421 3435.8,129.664C3384.48,133.701 3332.88,142.061 3280.99,154.746C3229.09,167.431 3179.22,184.44 3131.36,205.774C3083.51,227.107 3039.4,253.342 2999.04,284.477C2958.68,315.613 2923.93,351.794 2894.82,393.02C2865.7,434.245 2844.22,481.093 2830.39,533.562C2821.74,567.004 2817.41,600.158 2817.41,633.023C2817.41,679.15 2826.06,721.24 2843.36,759.295C2860.66,797.35 2885.74,827.332 2918.6,849.242ZM3043.14,884.702C3086.39,884.702 3122.28,875.333 3150.82,856.594C3179.36,837.855 3200.7,813.782 3214.82,784.376C3228.95,754.971 3236.01,724.123 3236.01,691.835C3236.01,667.041 3231.83,642.969 3223.47,619.617C3215.11,596.266 3202.57,575.653 3185.85,557.779C3157.6,617.167 3124.3,673.96 3085.96,728.159C3047.61,782.358 3003.94,829.062 2954.93,868.269C2968.19,873.459 2982.17,877.495 2996.87,880.378C3011.58,883.261 3027,884.702 3043.14,884.702Z" style="fill:rgb(248,248,251);fill-rule:nonzero;stroke:rgb(45,31,234);stroke-width:5.04px;"/>
        <path d="M4125.97,1053.35C4065.43,1053.35 4016.28,1042.54 3978.51,1020.92C3940.74,999.298 3913.21,970.613 3895.91,934.865C3878.62,899.117 3870.26,860.197 3870.83,818.107C3858.72,805.422 3849.21,791.151 3842.29,775.295C3835.37,759.439 3831.91,741.709 3831.91,722.105C3831.91,702.501 3835.66,681.744 3843.16,659.834C3844.31,656.951 3846.04,655.51 3848.35,655.51C3850.65,655.51 3852.67,656.23 3854.4,657.672C3856.13,659.113 3856.42,661.276 3855.26,664.158C3851.8,673.384 3849.35,682.609 3847.91,691.835C3846.47,701.06 3845.75,709.997 3845.75,718.646C3845.75,747.475 3854.4,772.845 3871.7,794.755C3875.16,758.43 3884.53,721.673 3899.81,684.483C3915.09,647.293 3935.41,611.689 3960.78,577.671C3986.15,543.652 4016.13,513.67 4050.73,487.724C4004.6,474.462 3966.11,456.876 3935.26,434.966C3904.42,413.056 3881.35,388.983 3866.08,362.749C3850.8,336.514 3843.16,311 3843.16,286.207C3843.16,252.189 3857.43,222.783 3885.97,197.99C3914.51,173.197 3957.32,160.8 4014.4,160.8C4048.42,160.8 4087.05,166.278 4130.3,177.233C4149.32,182.422 4168.35,188.188 4187.38,194.53C4206.4,200.873 4224.86,208.08 4242.73,216.152C4267.52,194.242 4294.91,173.341 4324.89,153.449C4354.88,133.556 4387.45,115.25 4422.62,98.529C4459.53,80.655 4493.83,67.682 4525.54,59.609C4557.26,51.537 4586.37,47.501 4612.9,47.501C4662.48,47.501 4700.82,59.754 4727.93,84.258C4755.02,108.763 4768.57,139.755 4768.57,177.233C4768.57,203.756 4761.22,232.585 4746.52,263.72C4731.82,294.856 4708.61,326.28 4676.9,357.992C4648.07,386.821 4617.51,411.038 4585.22,430.642C4552.93,450.246 4519.78,466.102 4485.76,478.21C4504.21,505.309 4513.44,536.157 4513.44,570.752C4513.44,579.401 4512.86,588.049 4511.71,596.698C4510.55,605.347 4508.82,614.284 4506.52,623.509C4532.46,602.752 4557.4,580.121 4581.33,555.616C4605.26,531.112 4626.45,505.021 4644.9,477.345C4653.55,464.66 4661.47,452.119 4668.68,439.723C4675.89,427.326 4683.24,415.65 4690.73,404.695C4695.92,394.893 4700.68,385.091 4705.01,375.29C4709.33,365.488 4713.51,355.974 4717.55,346.749C4719.28,341.559 4721.29,338.965 4723.6,338.965C4725.33,338.965 4726.48,340.118 4727.06,342.424C4727.64,344.731 4727.35,347.325 4726.19,350.208L4723.6,356.262C4761.08,304.37 4797.11,264.009 4831.71,235.179C4866.31,206.35 4899.46,191.936 4931.17,191.936C4940.4,191.936 4948.76,193.089 4956.25,195.395C4957.98,195.972 4958.85,197.125 4958.85,198.855C4958.85,203.467 4956.83,205.197 4952.79,204.044C4947.6,202.314 4942.13,201.449 4936.36,201.449C4915.03,201.449 4892.25,211.684 4868.03,232.152C4843.82,252.621 4818.88,281.018 4793.22,317.343C4767.57,353.668 4742.19,395.47 4717.11,442.75C4692.03,490.03 4667.67,540.481 4644.03,594.103C4619.24,651.185 4589.98,706.97 4556.25,761.457C4522.52,815.944 4484.17,865.242 4441.22,909.351C4398.26,953.46 4350.55,988.487 4298.08,1014.43C4245.61,1040.38 4188.24,1053.35 4125.97,1053.35ZM4475.38,464.372C4511.13,452.264 4545.58,436.263 4578.73,416.371C4611.89,396.479 4643.45,371.83 4673.44,342.424C4699.38,316.478 4718.56,289.667 4730.95,261.991C4743.35,234.315 4749.55,208.08 4749.55,183.287C4749.55,148.692 4737.87,119.574 4714.52,95.934C4691.17,72.294 4657.87,60.474 4614.63,60.474C4588.68,60.474 4559.56,65.519 4527.27,75.61C4494.98,85.7 4459.53,102.277 4420.89,125.34C4395.52,140.331 4371.45,157.196 4348.68,175.935C4325.9,194.674 4304.42,214.711 4284.24,236.044C4319.99,253.918 4351.13,272.946 4377.65,293.126C4404.17,313.307 4421.76,332.334 4430.41,350.208C4431.56,351.938 4432.14,353.379 4432.14,354.532L4432.14,357.992C4432.14,362.605 4430.41,364.911 4426.95,364.911C4423.49,364.911 4420.32,362.605 4417.43,357.992C4408.78,340.118 4391.49,321.523 4365.54,302.207C4339.6,282.892 4309.04,264.585 4273.86,247.288C4248.49,275.54 4226.15,305.09 4206.84,335.938C4187.52,366.785 4171.81,397.488 4159.7,428.047C4181.61,419.975 4204.82,413.632 4229.32,409.02C4253.83,404.407 4279.05,402.101 4305,402.101C4345.94,402.101 4380.39,407.867 4408.35,419.398C4436.32,430.93 4458.66,445.921 4475.38,464.372ZM4074.08,469.561C4085.61,429.777 4104.35,389.128 4130.3,347.613C4156.24,306.099 4189.68,266.027 4230.62,227.396C4213.9,220.477 4196.75,213.99 4179.16,207.936C4161.57,201.882 4144.13,196.837 4126.84,192.8C4103.77,186.458 4082.44,181.989 4062.83,179.395C4043.23,176.8 4025.07,175.503 4008.35,175.503C3960.49,175.503 3924.89,185.161 3901.53,204.476C3878.18,223.792 3866.51,246.999 3866.51,274.099C3866.51,297.162 3874.43,321.235 3890.29,346.316C3906.15,371.398 3929.5,394.749 3960.35,416.371C3991.19,437.993 4029.1,455.723 4074.08,469.561ZM4273,496.372C4303.56,496.372 4333.97,494.354 4364.24,490.318C4394.52,486.282 4424.64,479.94 4454.62,471.291C4440.21,454.57 4420.61,441.02 4395.81,430.642C4371.02,420.263 4340.75,415.074 4305,415.074C4277.32,415.074 4250.8,417.957 4225.43,423.723C4200.06,429.488 4175.85,437.272 4152.78,447.074C4150.48,453.417 4148.31,459.759 4146.3,466.102C4144.28,472.444 4142.69,478.786 4141.54,485.129C4162.87,488.588 4184.49,491.327 4206.4,493.345C4228.31,495.363 4250.51,496.372 4273,496.372ZM4271.27,723.835C4309.32,723.835 4349.69,714.033 4392.35,694.429C4406.77,688.087 4420.89,680.735 4434.73,672.375C4448.57,664.014 4462.41,655.221 4476.25,645.996C4484.89,620.626 4489.22,595.833 4489.22,571.617C4489.22,538.751 4481.15,509.922 4465,485.129C4432.14,494.931 4398.84,501.994 4365.11,506.318C4331.38,510.643 4297.5,512.805 4263.49,512.805C4220.82,512.805 4178.73,510.21 4137.21,505.021C4134.91,515.4 4133.18,525.49 4132.02,535.292C4130.87,545.094 4130.3,554.896 4130.3,564.698C4130.3,620.626 4143.7,661.131 4170.51,686.213C4197.32,711.294 4230.91,723.835 4271.27,723.835ZM4100.89,877.783C4159.12,877.783 4214.48,868.558 4266.94,850.107C4315.38,832.81 4356.75,807.728 4391.06,774.863C4425.36,741.997 4450.59,706.826 4466.73,669.348C4445.4,683.762 4422.91,696.736 4399.27,708.267C4341.04,735.943 4286.55,749.781 4235.81,749.781C4202.94,749.781 4173.25,743.295 4146.73,730.322C4120.2,717.348 4099.3,697.024 4084.02,669.348C4068.74,641.672 4061.11,605.923 4061.11,562.103C4061.11,551.724 4061.68,541.202 4062.83,530.535C4063.99,519.868 4065.72,509.057 4068.02,498.102C4032.85,525.202 4002.44,556.481 3976.78,591.941C3951.12,627.401 3931.23,664.591 3917.1,703.51C3902.98,742.43 3895.34,780.629 3894.18,818.107C3917.82,837.71 3948.09,852.558 3984.99,862.648C4021.9,872.738 4060.53,877.783 4100.89,877.783ZM4126.84,1042.97C4165.47,1042.97 4201.79,1035.05 4235.81,1019.19C4269.83,1003.33 4301.83,982.001 4331.81,955.19C4361.79,928.378 4389.76,897.964 4415.7,863.945C4441.65,829.927 4465.72,794.611 4487.92,757.998C4510.12,721.385 4530.73,685.348 4549.76,649.888C4568.79,614.428 4586.09,582.283 4601.65,553.454L4607.71,542.211C4574.84,580.842 4538.81,615.437 4499.6,645.996C4489.8,674.825 4474.52,703.222 4453.76,731.186C4433,759.151 4407.34,784.521 4376.78,807.296C4346.23,830.071 4311.05,848.377 4271.27,862.215C4244.75,871.441 4216.64,878.504 4186.94,883.405C4157.25,888.306 4127.7,890.756 4098.29,890.756C4059.09,890.756 4021.61,886.432 3985.86,877.783C3950.11,869.134 3919.55,855.873 3894.18,837.999C3895.34,875.477 3904.27,909.784 3920.99,940.919C3937.72,972.055 3963.09,996.848 3997.1,1015.3C4031.12,1033.75 4074.37,1042.97 4126.84,1042.97Z" style="fill:rgb(248,248,251);fill-rule:nonzero;stroke:rgb(45,31,234);stroke-width:5.04px;"/>
        <path d="M5521.88,853.567C5487.86,853.567 5460.62,845.783 5440.15,830.215C5419.68,814.647 5405.12,793.458 5396.48,766.646C5387.83,739.835 5383.5,709.132 5383.5,674.537C5383.5,657.816 5384.37,640.807 5386.1,623.509C5364.19,646.573 5341.84,667.474 5319.07,686.213C5296.29,704.952 5273.95,720.664 5252.04,733.349C5227.82,746.61 5204.62,756.556 5182.42,763.187C5160.22,769.818 5139.61,773.133 5120.58,773.133C5092.33,773.133 5068.69,766.07 5049.66,751.944C5030.63,737.817 5018.23,717.493 5012.47,690.97C5010.16,691.546 5008,691.835 5005.98,691.835L4999.5,691.835C4966.05,691.835 4937.51,677.132 4913.87,647.726C4890.23,618.32 4878.41,573.346 4878.41,512.805C4878.41,474.174 4884.76,432.516 4897.44,387.83C4910.13,343.145 4929.15,299.757 4954.52,257.666C4979.89,215.576 5011.32,179.827 5048.79,150.421C5047.07,150.421 5045.34,150.277 5043.61,149.989C5041.88,149.701 5040.15,149.557 5038.42,149.557C5036.11,148.98 5033.52,148.692 5030.63,148.692L5021.98,148.692C5009.88,148.692 4998.2,150.71 4986.96,154.746C4975.71,158.782 4965.77,165.701 4957.12,175.503C4955.96,176.656 4954.52,177.233 4952.79,177.233C4950.49,177.233 4948.47,176.08 4946.74,173.773C4945.01,171.467 4945.3,169.16 4947.6,166.854C4967.78,144.944 4992,133.989 5020.25,133.989C5023.14,133.989 5026.02,134.133 5028.9,134.421C5031.78,134.71 5034.67,135.142 5037.55,135.719L5062.63,140.043C5079.93,127.935 5099.25,117.124 5120.58,107.61C5141.91,98.096 5163.68,90.601 5185.88,85.123C5208.08,79.646 5228.69,76.907 5247.72,76.907C5269.05,76.907 5286.64,81.231 5300.47,89.88C5314.31,98.529 5321.23,112.943 5321.23,133.124C5321.23,145.809 5317.77,161.521 5310.85,180.26C5303.93,198.999 5292.11,220.765 5275.39,245.558C5269.05,255.36 5260.26,267.756 5249.01,282.748C5237.77,297.739 5225.52,314.46 5212.26,332.911C5213.99,349.055 5214.85,365.776 5214.85,383.073C5214.85,394.605 5214.42,406.425 5213.55,418.533C5212.69,430.642 5211.68,443.327 5210.53,456.588C5206.49,493.489 5196.98,526.643 5181.98,556.049C5166.99,585.455 5148.98,610.392 5127.93,630.861C5106.89,651.329 5084.83,666.753 5061.77,677.132C5062.92,701.925 5068.98,721.817 5079.93,736.808C5090.89,751.799 5107.61,759.295 5130.09,759.295C5143.35,759.295 5158.92,756.124 5176.8,749.781C5194.67,743.439 5214.85,733.349 5237.34,719.511C5264.44,702.79 5290.96,681.312 5316.91,655.077C5342.85,628.843 5368.22,599.581 5393.02,567.292C5399.93,525.778 5409.59,483.832 5421.99,441.453C5434.39,399.074 5447.65,358.569 5461.77,319.937C5475.9,281.306 5489.45,247.288 5502.42,217.882C5515.4,188.476 5525.92,165.989 5533.99,150.421C5546.68,126.782 5560.95,106.745 5576.8,90.313C5592.66,73.88 5606.93,64.799 5619.61,63.069C5635.18,61.339 5645.99,65.375 5652.05,75.177C5658.1,84.979 5661.13,97.376 5661.13,112.367C5661.13,132.547 5657.38,153.881 5649.88,176.368C5635.47,221.918 5616.59,268.766 5593.23,316.91C5569.88,365.055 5543.5,412.191 5514.1,458.318C5484.69,504.445 5453.27,547.112 5419.83,586.32C5417.52,602.464 5415.79,618.176 5414.64,633.455C5413.48,648.735 5412.91,663.582 5412.91,677.997C5412.91,710.285 5416.37,738.97 5423.29,764.052C5430.2,789.133 5441.59,808.881 5457.45,823.296C5473.31,837.71 5494.49,844.918 5521.02,844.918C5525.63,844.918 5527.94,846.359 5527.94,849.242C5527.94,852.125 5525.92,853.567 5521.88,853.567ZM5431.94,512.805C5468.26,459.183 5500.84,403.11 5529.67,344.586C5558.49,286.063 5580.98,232.008 5597.13,182.422C5604.05,162.241 5608.95,145.376 5611.83,131.827C5614.71,118.277 5616.15,107.754 5616.15,100.259C5616.15,89.304 5613.27,83.826 5607.51,83.826C5601.74,83.826 5593.09,90.601 5581.56,104.151C5570.03,117.7 5558.49,135.43 5546.96,157.341C5540.62,169.449 5532.55,187.611 5522.75,211.828C5512.94,236.044 5502.42,264.297 5491.18,296.586C5479.94,328.874 5469.12,363.47 5458.75,400.371C5448.37,437.272 5439.43,474.75 5431.94,512.805ZM5203.61,286.207C5209.95,278.135 5215.72,270.351 5220.9,262.856C5226.09,255.36 5230.71,248.729 5234.74,242.963C5252.04,216.44 5264.15,194.098 5271.07,175.935C5277.99,157.773 5281.45,143.214 5281.45,132.259C5281.45,116.691 5276.4,106.313 5266.31,101.123C5256.22,95.934 5244.83,93.34 5232.15,93.34C5216.58,93.34 5199.72,95.934 5181.55,101.123C5163.39,106.313 5145.66,112.799 5128.36,120.583C5111.07,128.367 5095.79,136.583 5082.53,145.232C5114.24,156.187 5140.04,173.485 5159.93,197.125C5179.82,220.765 5194.38,250.459 5203.61,286.207ZM4999.5,678.861L5004.69,678.861C5006.41,678.861 5008.43,678.573 5010.74,677.997C5010.16,675.114 5009.88,672.231 5009.88,669.348L5009.88,660.699C5009.88,645.708 5011.89,628.843 5015.93,610.104C5019.97,591.365 5026.31,571.328 5034.96,549.995C5046.49,522.319 5061.34,493.922 5079.5,464.804C5097.66,435.687 5116.54,407.29 5136.15,379.614C5155.75,351.938 5173.91,326.856 5190.63,304.37C5181.98,268.045 5167.43,236.621 5146.96,210.098C5126.49,183.575 5100.11,165.413 5067.82,155.611C5036.69,178.098 5009.88,204.332 4987.39,234.315C4964.9,264.297 4946.6,295.721 4932.47,328.586C4918.34,361.451 4907.96,393.884 4901.33,425.885C4894.7,457.885 4891.39,486.859 4891.39,512.805C4891.39,552.013 4896.43,583.869 4906.52,608.374C4916.61,632.879 4929.87,650.753 4946.31,661.996C4962.74,673.24 4980.47,678.861 4999.5,678.861ZM5061.77,663.294C5082.53,652.915 5102.56,638.068 5121.88,618.752C5141.19,599.437 5157.62,575.941 5171.17,548.265C5184.72,520.589 5193.52,489.453 5197.55,454.858C5198.71,445.056 5199.57,435.687 5200.15,426.75C5200.72,417.813 5201.01,408.731 5201.01,399.506C5201.01,382.209 5200.15,366.352 5198.42,351.938C5182.27,374.425 5166.13,398.209 5149.98,423.29C5133.84,448.372 5120,473.021 5108.47,497.237C5094.06,526.066 5082.81,555.04 5074.74,584.157C5066.67,613.275 5062.34,639.654 5061.77,663.294Z" style="fill:rgb(248,248,251);fill-rule:nonzero;stroke:rgb(45,31,234);stroke-width:5.04px;"/>
        <path d="M5774.43,1114.76C5742.71,1114.76 5716.48,1106.11 5695.72,1088.81C5674.97,1071.52 5665.74,1040.96 5668.05,997.136C5669.78,964.847 5680.44,932.559 5700.05,900.27C5719.65,867.981 5744.44,836.846 5774.43,806.863C5804.41,776.881 5835.83,750.07 5868.7,726.43C5877.92,720.087 5887.29,713.745 5896.81,707.402C5906.32,701.06 5915.69,695.006 5924.91,689.24C5916.84,675.978 5912.81,659.546 5912.81,639.942C5912.81,633.023 5913.38,625.816 5914.54,618.32C5915.69,610.824 5917.42,603.041 5919.73,594.968C5890.32,588.626 5862.79,574.788 5837.13,553.454C5811.47,532.121 5790.57,504.156 5774.43,469.561C5758.28,434.966 5750.21,394.893 5750.21,349.343C5750.21,319.937 5755.4,289.09 5765.78,256.801C5776.16,224.513 5790.57,193.089 5809.02,162.53C5827.47,131.971 5849.24,104.439 5874.32,79.934C5899.4,55.429 5926.93,35.969 5956.91,21.555C5986.9,7.14 6018.03,-0.067 6050.32,-0.067C6082.03,-0.067 6108.7,7.573 6130.32,22.852C6151.94,38.132 6168.38,58.168 6179.62,82.961C6190.86,107.754 6196.49,134.565 6196.49,163.395C6196.49,193.377 6190.86,223.792 6179.62,254.639C6168.38,285.486 6154.11,316.19 6136.81,346.749C6140.27,361.163 6142,376.443 6142,392.587C6142,424.876 6135.22,456.3 6121.67,486.859C6108.12,517.418 6088.66,542.932 6063.3,563.4C6037.93,583.869 6006.79,595.545 5969.89,598.428C5954.9,628.41 5948.27,653.78 5950,674.537C5987.47,653.203 6025.67,635.041 6064.59,620.05C6103.51,605.059 6142,594.68 6180.05,588.914C6185.82,587.761 6191.3,587.04 6196.49,586.752C6201.68,586.464 6206.58,586.031 6211.19,585.455C6240.6,552.589 6269.71,517.274 6298.54,479.507C6327.37,441.741 6354.61,404.407 6380.27,367.506C6405.93,330.604 6428.71,296.73 6448.6,265.883C6468.49,235.035 6484.49,210.098 6496.6,191.071C6498.33,189.341 6499.77,188.476 6500.92,188.476C6528.02,149.268 6556.85,116.547 6587.41,90.313C6617.97,64.078 6649.97,50.672 6683.41,50.096C6705.32,48.943 6726.08,52.979 6745.68,62.204C6765.29,71.429 6781.43,87.285 6794.12,109.772C6794.69,110.349 6794.98,111.502 6794.98,113.232C6794.98,115.538 6793.68,117.268 6791.09,118.421C6788.49,119.574 6786.33,118.998 6784.6,116.691C6772.49,96.511 6759.95,82.096 6746.98,73.447C6734.01,64.799 6720.89,60.474 6707.63,60.474C6686.3,60.474 6664.67,69.555 6642.76,87.718C6620.85,105.88 6599.52,129.809 6578.76,159.503C6558.01,189.197 6538.26,221.341 6519.52,255.936C6500.78,290.532 6483.77,324.406 6468.49,357.56C6453.21,390.713 6440.38,419.975 6430,445.345C6419.05,471.291 6407.81,496.516 6396.27,521.021C6384.74,545.526 6373.21,569.31 6361.68,592.374C6391.66,601.022 6413.72,614.428 6427.84,632.59C6441.97,650.753 6449.03,672.231 6449.03,697.024C6449.03,726.43 6441.25,753.097 6425.68,777.025C6410.11,800.953 6389.5,821.422 6363.84,838.431C6338.18,855.44 6310.07,868.414 6279.51,877.351C6248.95,886.288 6218.97,890.756 6189.57,890.756L6162.76,890.756C6116.05,944.379 6069.49,988.199 6023.08,1022.22C5976.66,1056.24 5932.7,1079.88 5891.19,1093.14C5871,1099.48 5850.82,1104.67 5830.64,1108.7C5810.46,1112.74 5791.72,1114.76 5774.43,1114.76ZM5923.19,582.86C5925.49,575.941 5928.09,569.022 5930.97,562.103C5933.85,555.184 5937.02,547.977 5940.48,540.481C5951.44,517.994 5966.72,494.354 5986.32,469.561C6005.93,444.768 6027.11,419.11 6049.89,392.587C6072.66,366.064 6093.57,339.541 6112.59,313.018C6101.64,287.649 6086.79,267.036 6068.05,251.18C6049.31,235.324 6028.99,227.396 6007.08,227.396C5993.24,227.396 5979.11,231.432 5964.7,239.504C5964.12,240.08 5962.97,240.369 5961.24,240.369C5958.36,240.369 5956.34,238.783 5955.19,235.612C5954.03,232.441 5954.9,229.99 5957.78,228.26C5974.5,219.035 5991.22,214.422 6007.94,214.422C6031.58,214.422 6053.49,222.495 6073.67,238.639C6093.85,254.783 6109.71,275.54 6121.24,300.91C6137.96,277.27 6151.8,253.774 6162.76,230.423C6173.71,207.071 6179.19,184.728 6179.19,163.395C6179.19,135.719 6174.29,110.493 6164.49,87.718C6154.68,64.943 6140.27,46.78 6121.24,33.231C6102.22,19.681 6078.57,12.906 6050.32,12.906C6010.54,12.906 5974.93,23.573 5943.51,44.906C5912.09,66.24 5885.42,94.349 5863.51,129.232C5841.6,164.115 5825.02,202.314 5813.78,243.828C5802.53,285.342 5796.91,326.28 5796.91,366.641C5796.91,401.812 5801.38,434.678 5810.32,465.237C5819.26,495.796 5833.09,521.454 5851.83,542.211C5870.57,562.968 5894.36,576.518 5923.19,582.86ZM6230.22,582.86C6238.86,582.283 6247.23,581.851 6255.3,581.563C6263.37,581.274 6271.15,581.13 6278.65,581.13L6292.49,581.13C6297.1,581.13 6301.43,581.419 6305.46,581.995L6309.78,572.482C6321.89,545.959 6336.6,512.228 6353.89,471.291C6371.19,430.353 6390.51,387.974 6411.84,344.154C6385.89,382.785 6357.35,423.002 6326.22,464.804C6295.08,506.607 6263.08,545.959 6230.22,582.86ZM5977.67,584.59C6009.96,580.554 6037.35,568.878 6059.84,549.562C6082.32,530.247 6099.33,506.607 6110.86,478.642C6122.4,450.678 6128.16,421.993 6128.16,392.587C6128.16,387.974 6128.02,383.218 6127.73,378.317C6127.44,373.416 6127.01,368.659 6126.43,364.046C6107.4,395.758 6086.79,426.894 6064.59,457.453C6042.39,488.012 6021.78,516.841 6002.75,543.941C5997.57,551.436 5992.95,558.499 5988.92,565.13C5984.88,571.761 5981.13,578.247 5977.67,584.59ZM5799.51,1099.19C5815.07,1099.19 5832.09,1096.88 5850.53,1092.27C5868.99,1087.66 5888.59,1080.74 5909.35,1071.52C5937.6,1058.25 5969.89,1035.34 6006.21,1002.76C6042.54,970.181 6079.15,930.829 6116.05,884.702C6091.26,878.936 6070.5,869.279 6053.78,855.729C6037.06,842.179 6027.55,824.449 6025.24,802.539C6025.24,797.926 6026.97,795.043 6030.43,793.89C6033.89,792.737 6035.91,794.467 6036.48,799.079C6038.79,820.413 6048.02,837.134 6064.16,849.242C6080.3,861.35 6100.2,869.711 6123.84,874.324C6156.12,833.963 6187.26,790.142 6217.24,742.862C6247.23,695.582 6274.32,646.573 6298.54,595.833C6293.93,595.257 6289.17,594.824 6284.27,594.536C6279.37,594.248 6274.32,594.103 6269.14,594.103C6261.64,594.103 6253.57,594.392 6244.92,594.968C6236.27,595.545 6227.33,596.41 6218.11,597.563C6182.36,636.194 6147.19,668.483 6112.59,694.429C6078,720.376 6046.29,733.925 6017.46,735.078C6000.74,735.655 5985.17,733.349 5970.75,728.159C5956.34,722.97 5944.23,714.898 5934.43,703.943C5924.05,710.285 5913.67,716.916 5903.29,723.835C5892.91,730.754 5882.82,737.961 5873.02,745.457C5810.17,791.007 5764.48,836.413 5735.94,881.675C5707.4,926.937 5693.13,966.577 5693.13,1000.6C5693.13,1030.58 5702.5,1054.51 5721.24,1072.38C5739.98,1090.26 5766.07,1099.19 5799.51,1099.19ZM6013.13,722.97C6039.08,722.97 6068.05,711.438 6100.05,688.375C6132.05,665.312 6164.77,635.618 6198.22,599.293L6180.05,601.887C6142,607.653 6103.94,618.608 6065.89,634.753C6027.84,650.897 5990.65,669.924 5954.32,691.835C5958.93,702.213 5966.28,709.997 5976.38,715.186C5986.47,720.376 5998.72,722.97 6013.13,722.97ZM6173.14,878.648L6191.3,878.648C6218.4,878.648 6245.93,874.324 6273.89,865.675C6301.86,857.026 6327.37,844.63 6350.43,828.485C6373.5,812.341 6392.09,793.313 6406.22,771.403C6420.35,749.493 6427.41,725.276 6427.41,698.754C6427.41,678.573 6421.79,660.122 6410.54,643.401C6399.3,626.68 6380.7,614.284 6354.76,606.212C6297.68,712.88 6237.14,803.692 6173.14,878.648Z" style="fill:rgb(248,248,251);fill-rule:nonzero;stroke:rgb(45,31,234);stroke-width:5.04px;"/>
        <path d="M6960.17,991.082C6931.34,991.082 6907.27,979.983 6887.96,957.784C6868.64,935.586 6858.98,906.036 6858.98,869.134C6858.98,859.332 6859.85,849.242 6861.58,838.864C6841.97,841.17 6822.08,842.035 6801.9,841.458C6766.73,840.882 6734.58,834.683 6705.47,822.863C6676.35,811.043 6651.41,795.332 6630.65,775.728C6609.9,756.124 6594.33,734.358 6583.95,710.429C6573.57,686.501 6569.25,662.429 6570.98,638.212C6573.86,598.428 6585.82,561.815 6606.87,528.373C6627.92,494.931 6654.87,465.237 6687.74,439.29C6720.6,413.344 6756.06,392.299 6794.12,376.154C6786.62,366.929 6780.57,356.551 6775.95,345.019C6771.34,333.487 6769.03,321.091 6769.03,307.829C6769.03,301.487 6769.61,294.568 6770.77,287.072C6771.92,279.576 6773.94,272.081 6776.82,264.585L6778.55,260.261C6730.69,242.963 6695.95,221.197 6674.33,194.963C6652.71,168.728 6641.9,143.214 6641.9,118.421C6641.9,91.898 6652.57,68.979 6673.9,49.663C6695.23,30.348 6724.35,20.69 6761.25,20.69C6786.04,20.69 6813.86,26.312 6844.71,37.555C6875.56,48.798 6908.57,67.682 6943.74,94.204C6982.95,74.601 7024.46,59.609 7068.28,49.231C7112.1,38.852 7154.19,33.663 7194.55,33.663C7240.68,33.663 7277.01,42.456 7303.53,60.042C7330.05,77.628 7343.31,99.105 7343.31,124.475C7343.31,137.737 7338.99,151.863 7330.34,166.854C7316.5,189.918 7297.33,209.233 7272.83,224.801C7248.32,240.369 7221.08,252.909 7191.1,262.423C7161.11,271.937 7130.84,279.288 7100.28,284.477C7110.09,306.388 7117.58,329.163 7122.77,352.803C7127.96,376.443 7130.55,400.083 7130.55,423.723L7130.55,436.263C7130.55,440.588 7130.27,445.056 7129.69,449.669C7139.49,445.633 7149.15,442.462 7158.66,440.155C7168.18,437.849 7176.97,436.696 7185.04,436.696C7200.61,436.696 7213.29,440.876 7223.1,449.237C7232.9,457.597 7237.8,471.579 7237.8,491.183C7237.8,500.408 7236.65,510.643 7234.34,521.886C7232.03,533.13 7228,545.959 7222.23,560.373C7210.7,589.779 7194.55,618.32 7173.8,645.996C7153.04,673.672 7133.44,696.447 7114.99,714.321C7082.12,746.034 7045.22,772.412 7004.28,793.458C6963.34,814.503 6920.39,828.773 6875.41,836.269L6872.82,856.161C6872.24,859.044 6871.95,862.071 6871.95,865.242L6871.95,874.324C6871.95,907.766 6880.46,933.135 6897.47,950.433C6914.48,967.73 6935.38,976.379 6960.17,976.379C6974.01,976.379 6988.71,973.496 7004.28,967.73C7019.85,961.965 7035.42,953.316 7050.99,941.784C7053.29,940.631 7054.73,940.054 7055.31,940.054C7058.19,940.054 7060.21,941.496 7061.36,944.379C7062.52,947.262 7061.65,949.856 7058.77,952.163C7041.47,965.424 7024.46,975.226 7007.74,981.568C6991.02,987.911 6975.16,991.082 6960.17,991.082ZM7094.23,269.775C7137.47,261.126 7173.94,248.008 7203.64,230.423C7233.33,212.837 7255.67,193.377 7270.66,172.043C7285.65,150.71 7293.15,130.818 7293.15,112.367C7293.15,93.916 7285.51,78.348 7270.23,65.664C7254.95,52.979 7231.17,46.636 7198.88,46.636C7160.25,46.636 7120.46,52.258 7079.53,63.501C7038.59,74.745 7001.11,91.033 6967.09,112.367C6974.59,118.133 6982.08,124.475 6989.58,131.394C6997.07,138.313 7004.57,145.809 7012.07,153.881C7045.51,186.17 7072.9,224.801 7094.23,269.775ZM6782.87,249.017C6795.56,218.458 6814.87,190.638 6840.82,165.557C6866.77,140.475 6896.46,118.998 6929.9,101.123C6901.65,81.52 6874.69,67.682 6849.04,59.609C6823.38,51.537 6799.88,47.501 6778.55,47.501C6744.53,47.501 6717.29,55.862 6696.82,72.583C6676.35,89.304 6666.11,109.484 6666.11,133.124C6666.11,153.304 6675.34,173.917 6693.79,194.963C6712.24,216.008 6741.94,234.026 6782.87,249.017ZM6995.63,279.288C7010.62,279.288 7025.33,278.712 7039.74,277.558C7054.16,276.405 7067.99,274.675 7081.26,272.369C7070.88,251.612 7059.06,232.008 7045.8,213.558C7032.53,195.107 7018.41,178.098 7003.42,162.53C6995.34,154.458 6987.27,147.25 6979.2,140.908C6971.13,134.565 6963.63,127.935 6956.71,121.016L6954.98,119.286C6928.46,137.16 6905.11,158.35 6884.93,182.854C6864.75,207.359 6850.62,234.891 6842.55,265.45C6863.88,269.486 6887.24,272.802 6912.61,275.396C6937.97,277.991 6965.65,279.288 6995.63,279.288ZM6833.04,823.296C6838.23,823.296 6843.41,823.152 6848.6,822.863C6853.79,822.575 6859.27,822.143 6865.04,821.566C6868.5,800.232 6873.97,778.899 6881.47,757.565C6888.97,736.232 6897.61,715.186 6907.41,694.429C6904.53,695.006 6901.51,695.294 6898.33,695.294L6889.25,695.294C6855.81,695.294 6827.41,687.078 6804.06,670.645C6780.71,654.212 6769.03,632.446 6769.03,605.347C6769.03,592.662 6771.92,579.689 6777.68,566.427C6778.26,564.121 6780.28,562.968 6783.74,562.968C6786.04,562.968 6787.92,563.689 6789.36,565.13C6790.8,566.572 6790.94,568.734 6789.79,571.617C6787.49,577.382 6785.76,583.148 6784.6,588.914C6783.45,594.68 6782.87,600.158 6782.87,605.347C6782.87,628.41 6792.96,647.005 6813.14,661.131C6833.32,675.258 6858.41,682.321 6888.39,682.321C6893,682.321 6897.47,682.177 6901.79,681.888C6906.12,681.6 6910.3,681.168 6914.33,680.591C6935.67,637.924 6961.33,598.572 6991.31,562.535C7021.29,526.499 7052.72,497.237 7085.58,474.75C7095.96,467.831 7106.34,461.777 7116.72,456.588C7117.29,451.399 7117.73,446.354 7118.01,441.453C7118.3,436.552 7118.44,431.507 7118.44,426.317C7118.44,402.677 7115.71,378.893 7110.23,354.965C7104.75,331.037 7097.11,308.117 7087.31,286.207C7071.16,288.514 7055.31,290.099 7039.74,290.964C7024.17,291.829 7009.47,292.261 6995.63,292.261C6965.65,292.261 6937.69,290.964 6911.74,288.369C6885.79,285.775 6861.86,282.171 6839.95,277.558C6839.38,281.595 6838.66,285.775 6837.79,290.099C6836.93,294.424 6836.21,298.892 6835.63,303.505C6833.9,324.838 6836.49,343.001 6843.41,357.992C6863.6,351.65 6883.78,346.893 6903.96,343.722C6924.14,340.55 6943.74,338.965 6962.77,338.965C6989.29,338.965 7008.61,342.568 7020.71,349.776C7032.82,356.983 7038.88,365.488 7038.88,375.29C7038.88,387.974 7029.65,400.515 7011.2,412.912C6992.75,425.308 6967.38,431.507 6935.09,431.507C6931.06,431.507 6926.88,431.362 6922.55,431.074C6918.23,430.786 6913.76,430.353 6909.15,429.777C6864.17,425.164 6828.71,410.461 6802.77,385.668C6768.17,402.389 6739.77,423.579 6717.57,449.237C6695.38,474.895 6678.8,502.715 6667.84,532.697C6656.89,562.68 6651.41,592.662 6651.41,622.644C6651.41,657.816 6658.48,690.681 6672.6,721.24C6686.73,751.799 6707.34,776.448 6734.44,795.187C6761.54,813.926 6794.4,823.296 6833.04,823.296ZM6948.06,415.939C6968.24,415.939 6986.26,412.191 7002.12,404.695C7017.98,397.2 7025.9,387.398 7025.9,375.29C7025.9,368.371 7022.16,363.325 7014.66,360.154C7007.16,356.983 6998.52,354.821 6988.71,353.668C6978.91,352.514 6970.84,351.938 6964.5,351.938C6920.1,351.938 6881.47,357.415 6848.6,368.371C6858.98,385.091 6873.54,397.2 6892.28,404.695C6911.02,412.191 6929.61,415.939 6948.06,415.939ZM6878.01,818.971C6910.88,813.206 6943.16,802.251 6974.88,786.106C7006.59,769.962 7035.99,749.925 7063.09,725.997C7090.19,702.069 7114.41,675.834 7135.74,647.293C7157.08,618.752 7173.8,589.202 7185.91,558.643C7198.59,526.355 7204.93,501.562 7204.93,484.264C7204.93,461.201 7195.13,449.669 7175.53,449.669C7162.84,449.669 7147.28,454.282 7128.82,463.507C7126.52,481.381 7122.34,498.967 7116.28,516.265C7110.23,533.562 7102.3,550.571 7092.5,567.292C7070.01,605.347 7043.63,634.32 7013.36,654.212C6983.09,674.105 6953.25,686.645 6923.85,691.835C6912.89,713.168 6903.67,734.646 6896.17,756.268C6888.68,777.89 6882.62,798.791 6878.01,818.971ZM6930.77,677.132C6957.87,670.789 6984.82,658.248 7011.63,639.509C7038.44,620.77 7061.94,594.392 7082.12,560.373C7098.27,532.697 7108.93,503.003 7114.12,471.291L7094.23,483.399C7060.79,503.58 7030.23,531.256 7002.55,566.427C6974.88,601.599 6950.95,638.5 6930.77,677.132Z" style="fill:rgb(248,248,251);fill-rule:nonzero;stroke:rgb(45,31,234);stroke-width:5.04px;"/>
        <path d="M7141.8,977.244C7116.43,977.244 7092.5,973.929 7070.01,967.298C7047.53,960.667 7029.36,949.568 7015.53,934C7001.69,918.432 6994.77,897.387 6994.77,870.864C6994.77,861.639 6995.63,852.413 6997.36,843.188C6997.36,839.729 6999.38,837.999 7003.42,837.999C7006.88,837.999 7008.61,839.44 7008.61,842.323C7008.61,845.783 7008.46,848.954 7008.17,851.837C7007.89,854.72 7007.74,857.891 7007.74,861.35C7007.74,885.567 7014.8,905.459 7028.93,921.027C7043.06,936.595 7061.36,948.126 7083.85,955.622C7106.34,963.118 7129.98,966.865 7154.77,966.865C7182.45,966.865 7209.26,962.829 7235.2,954.757C7262.88,946.108 7289.4,933.279 7314.77,916.27C7340.14,899.261 7364.07,879.513 7386.56,857.026C7349.66,833.386 7321.11,800.809 7300.93,759.295C7280.75,717.781 7270.66,672.519 7270.66,623.509C7270.66,594.103 7274.7,562.68 7282.77,529.238C7294.88,484.264 7314.34,440.011 7341.15,396.479C7367.96,352.947 7404.86,312.442 7451.86,274.964C7498.85,237.486 7558.24,205.197 7630.02,178.098C7701.81,150.998 7788.44,131.106 7889.92,118.421C7903.18,116.691 7919.18,115.106 7937.92,113.664C7956.65,112.223 7974.96,110.781 7992.84,109.34C8010.71,107.898 8024.84,107.178 8035.22,107.178L8036.08,107.178C8038.96,107.178 8041.12,108.331 8042.57,110.637C8044.01,112.943 8044.73,115.538 8044.73,118.421C8044.73,123.034 8042.71,125.34 8038.68,125.34C8017.92,124.187 8001.2,130.241 7988.51,143.502C7975.83,156.764 7963.43,174.061 7951.32,195.395C7939.79,215.576 7932.73,241.089 7930.13,271.937C7927.54,302.784 7926.24,334.064 7926.24,365.776L7926.24,406.425C7926.24,419.687 7926.1,432.516 7925.81,444.912C7925.52,457.309 7924.8,468.696 7923.65,479.075C7917.3,539.04 7905.63,591.076 7888.62,635.185C7871.61,679.294 7846.96,714.321 7814.67,740.268C7804.29,748.916 7795.64,754.682 7788.73,757.565C7816.4,759.872 7840.91,754.25 7862.24,740.7C7883.57,727.15 7902.31,708.988 7918.46,686.213C7934.6,663.438 7948.3,639.221 7959.54,613.563C7970.78,587.905 7980.44,564.409 7988.51,543.076C8006.96,494.643 8024.12,446.642 8039.97,399.074C8055.83,351.505 8074.13,305.955 8094.89,262.423C8115.65,218.891 8141.88,178.098 8173.6,140.043C8205.31,101.988 8245.96,68.258 8295.54,38.852C8318.61,25.014 8341.67,14.924 8364.73,8.582C8387.8,2.239 8410,-0.932 8431.33,-0.932C8468.81,-0.932 8500.09,8.005 8525.17,25.879C8550.25,43.753 8562.79,67.393 8562.79,96.799C8562.79,119.862 8553.57,145.376 8535.11,173.341C8516.66,201.305 8485.53,230.567 8441.71,261.126C8438.25,264.009 8434.5,265.45 8430.46,265.45C8427,265.45 8425.27,263.72 8425.27,260.261C8425.27,256.801 8427,253.918 8430.46,251.612C8476.01,222.783 8508.45,195.107 8527.76,168.584C8547.08,142.061 8556.74,118.998 8556.74,99.394C8556.74,79.79 8548.81,64.222 8532.95,52.69C8517.1,41.159 8495.62,35.393 8468.52,35.393C8449.49,35.393 8428.3,38.852 8404.95,45.771C8381.6,52.69 8357.24,63.645 8331.87,78.637C8309.96,91.898 8286.46,110.205 8261.38,133.556C8236.3,156.908 8211.65,184.008 8187.43,214.855C8163.22,245.702 8141.02,279.288 8120.84,315.613C8101.23,350.785 8082.93,389.272 8065.92,431.074C8048.91,472.877 8033.2,512.517 8018.78,549.995C8010.71,572.482 8000.19,596.41 7987.21,621.78C7974.24,647.149 7958.67,671.078 7940.51,693.564C7922.35,716.051 7901.74,734.502 7878.67,748.916C7855.61,763.331 7829.66,770.538 7800.83,770.538C7795.07,770.538 7789.01,770.25 7782.67,769.673C7776.33,769.097 7769.99,767.944 7763.64,766.214C7760.76,766.214 7759.32,764.773 7759.32,761.89C7757.59,760.736 7757.3,759.872 7758.45,759.295L7759.32,759.295C7759.32,754.682 7761.91,752.953 7767.1,754.106C7787.86,739.115 7804.44,719.222 7816.83,694.429C7829.23,669.636 7838.74,642.104 7845.37,611.833C7852.01,581.563 7857.05,550.427 7860.51,518.427C7863.97,486.426 7866.71,455.291 7868.73,425.02C7870.74,394.749 7873.2,367.217 7876.08,342.424C7879.54,317.054 7884.01,293.126 7889.48,270.639C7894.96,248.153 7902.31,228.837 7911.54,212.693C7920.19,197.701 7932.15,181.989 7947.43,165.557C7962.71,149.124 7979.29,136.295 7997.16,127.07L7991.97,127.07C7991.4,127.646 7990.24,127.935 7988.51,127.935C7987.94,127.935 7987.36,127.791 7986.78,127.502C7986.2,127.214 7985.34,127.07 7984.19,127.07L7956.51,127.07C7935.75,132.259 7913.84,145.953 7890.78,168.151C7867.72,190.35 7844.36,219.323 7820.73,255.072C7797.09,290.82 7773.3,331.037 7749.37,375.722C7725.44,420.407 7702.24,467.831 7679.75,517.994L7667.64,544.805C7687.82,564.409 7703.25,587.473 7713.91,613.996C7724.58,640.519 7729.91,667.906 7729.91,696.159C7729.91,729.024 7722.42,760.592 7707.43,790.863C7692.44,821.134 7669.8,845.927 7639.53,865.242C7609.26,884.558 7570.49,894.216 7523.21,894.216C7504.76,894.216 7487.03,892.63 7470.02,889.459C7453.01,886.288 7437.01,881.819 7422.02,876.053C7390.88,900.27 7357.87,920.595 7322.99,937.027C7288.11,953.46 7251.06,964.847 7211.85,971.19C7200.9,972.92 7189.36,974.361 7177.26,975.514C7165.15,976.667 7153.33,977.244 7141.8,977.244ZM7394.34,849.242C7424.9,818.107 7453.15,783.656 7479.1,745.889C7505.05,708.123 7528.97,669.924 7550.88,631.293C7572.79,592.662 7592.98,556.625 7611.43,523.184C7590.67,512.805 7565.88,507.616 7537.05,507.616C7518.02,507.616 7499.42,513.382 7481.26,524.913C7463.1,536.445 7448.25,551.436 7436.72,569.887C7425.19,588.338 7419.42,608.518 7419.42,630.428C7419.42,641.383 7421.73,652.627 7426.34,664.158C7430.95,675.69 7436.86,685.492 7444.07,693.564C7451.28,701.636 7458.92,705.673 7466.99,705.673C7472.18,705.673 7474.78,707.979 7474.78,712.592C7474.78,716.628 7472.47,718.646 7467.86,718.646C7455.75,718.646 7445.08,713.601 7435.86,703.51C7426.63,693.42 7419.42,681.456 7414.23,667.618C7409.04,653.78 7406.45,641.383 7406.45,630.428C7406.45,606.212 7412.79,583.869 7425.48,563.4C7438.16,542.932 7454.59,526.499 7474.78,514.102C7494.95,501.706 7515.71,495.507 7537.05,495.507C7552.04,495.507 7566.31,496.949 7579.86,499.832C7593.41,502.715 7605.95,506.751 7617.48,511.94L7636.51,477.345C7686.09,386.821 7734.09,311.433 7780.51,251.18C7826.92,190.927 7870.6,150.421 7911.54,129.664C7860.22,133.701 7808.62,142.061 7756.73,154.746C7704.83,167.431 7654.96,184.44 7607.1,205.774C7559.24,227.107 7515.14,253.342 7474.78,284.477C7434.41,315.613 7399.67,351.794 7370.56,393.02C7341.44,434.245 7319.96,481.093 7306.12,533.562C7297.48,567.004 7293.15,600.158 7293.15,633.023C7293.15,679.15 7301.8,721.24 7319.1,759.295C7336.39,797.35 7361.48,827.332 7394.34,849.242ZM7518.88,884.702C7562.13,884.702 7598.02,875.333 7626.56,856.594C7655.1,837.855 7676.44,813.782 7690.56,784.376C7704.69,754.971 7711.75,724.123 7711.75,691.835C7711.75,667.041 7707.57,642.969 7699.21,619.617C7690.85,596.266 7678.31,575.653 7661.59,557.779C7633.34,617.167 7600.04,673.96 7561.69,728.159C7523.35,782.358 7479.68,829.062 7430.67,868.269C7443.93,873.459 7457.91,877.495 7472.61,880.378C7487.32,883.261 7502.74,884.702 7518.88,884.702Z" style="fill:rgb(248,248,251);fill-rule:nonzero;stroke:rgb(45,31,234);stroke-width:5.04px;"/>
    </g>
</svg>
