<svg width="200" height="200" viewBox="0 0 200 200" fill="none" xmlns="http://www.w3.org/2000/svg">
<path d="M91.2312 195H114.328C117.889 195 120.198 190.892 120.198 184.958C120.198 174.231 116.734 176.057 112.788 163.733C110.382 156.201 109.804 139.084 109.804 119.913V91.6133C109.804 49.3913 110.574 43.001 111.537 33.8719C112.403 25.1993 113.558 14.0162 110.863 8.0823C108.553 3.06131 105.858 3.74599 99.1231 13.3315C94.7922 19.4936 90.4612 22.917 88.1514 27.0251C86.1303 30.6767 85.1679 35.6977 86.419 40.7187C89.1138 51.4454 95.7546 45.055 95.7546 92.7544V119.913C95.7546 139.084 95.1771 156.201 92.7711 163.733C88.8251 176.057 85.3604 174.231 85.3604 184.958C85.3604 190.892 87.6702 195 91.2312 195Z" fill="#2D1FEA"/>
<path d="M137.436 194.995C139.457 194.995 140.419 191.934 142.633 182.754L153.121 139.036C158.415 117.177 163.131 100.127 166.112 91.8201C169.096 83.5137 171.502 82.8579 171.502 77.8303C171.502 73.0214 169.769 70.1797 167.171 70.1797C164.38 70.1797 162.553 71.4912 159.57 71.4912C156.586 71.4912 151.581 70.1797 149.368 70.1797C146.866 70.1797 145.229 73.0214 145.229 77.8303C145.229 82.8579 149.079 83.7323 150.427 90.9457C151.774 97.9406 149.849 107.777 143.788 134.008L140.997 146.03L137.339 131.822C131.95 110.837 128.678 97.722 129.929 90.7272C131.18 83.9509 134.741 82.8579 134.741 77.8303C134.741 73.0214 133.008 70.1797 130.41 70.1797C127.619 70.1797 122.135 71.4912 118.189 71.4912C114.339 71.4912 109.142 70.1797 107.025 70.1797C104.524 70.1797 102.792 73.0214 102.792 77.8303C102.792 82.8579 105.292 83.9509 108.372 92.0387C111.356 99.6893 115.59 118.051 120.691 139.036L131.565 183.847C133.778 192.809 134.933 194.995 137.436 194.995Z" fill="#2D1FEA"/>
<path d="M35.117 194.947C40.2394 194.947 42.9512 194.864 47.1697 194.864C51.4886 194.864 55.2029 194.947 59.2205 194.947C62.9367 194.947 65.3552 190.056 65.3552 184.332C65.3552 173.986 61.7393 175.747 57.6233 163.86C52.7017 147.13 59.1299 139.646 63.0451 133.702C66.1587 144.929 72.2855 168.263 74.7965 175.307C80.1198 190.276 83.7474 194.864 92.6846 194.864C97.6061 194.864 102.614 192.257 102.614 185.873C102.614 178.829 100.306 179.93 95.3846 171.565C91.4675 164.961 85.9433 153.514 82.6288 142.067L74.7965 115.431C80.0193 107.947 87.249 98.4814 90.4631 94.0787C94.9828 87.9151 97.7952 87.0346 98.0965 79.7702C98.2973 74.9274 100.464 65.3539 98.6479 68.2427C96.068 72.349 86.5459 71.8455 82.227 71.8455C78.0105 71.8455 73.1894 70.0845 70.1763 70.0845C67.3639 70.0845 65.0538 74.9274 65.0538 79.7702C65.0538 89.0157 70.3771 86.8144 71.1806 94.2989C71.9842 101.563 64.853 112.129 61.0382 116.752C58.3264 119.834 54.555 123.546 54.555 123.546C54.555 123.546 54.5097 117.413 54.5097 111.249V94.2989C54.5097 53.5747 55.3132 47.411 56.3176 38.6058C57.2215 30.2408 58.4268 19.4544 55.6145 13.731C53.204 8.88814 48.1268 12.3939 40.6943 21.0625C35.8535 26.7091 34.3233 28.0395 31.9127 32.0019C29.8035 35.524 28.7991 40.3668 30.1048 45.2097C32.9171 55.5559 39.8475 49.3922 39.8475 95.3995V121.595C39.8475 140.086 39.2429 156.596 36.7338 163.86C32.6158 175.747 29 173.986 29 184.332C29 190.056 31.4027 194.947 35.117 194.947Z" fill="#2D1FEA"/>
</svg>
