<svg width="35" height="35" viewBox="0 0 35 35" fill="none" xmlns="http://www.w3.org/2000/svg">
<path d="M14.5703 20.3906C14.5703 21.8984 13.4766 22.375 12.1328 22.375H8.60938V18.2422H12.2031C13.6562 18.25 14.5703 18.8516 14.5703 20.3906ZM13.9688 13.9609C13.9688 12.5781 12.8984 12.25 11.7109 12.25H8.61719V15.75H11.9531C13.1328 15.75 13.9688 15.2344 13.9688 13.9609ZM24.3047 15.7734C22.875 15.7734 21.9219 16.6641 21.8281 18.0938H26.6875C26.5547 16.6484 25.8047 15.7734 24.3047 15.7734ZM35 3.75V31.25C35 33.3203 33.3203 35 31.25 35H3.75C1.67969 35 0 33.3203 0 31.25V3.75C0 1.67969 1.67969 0 3.75 0H31.25C33.3203 0 35 1.67969 35 3.75ZM21.2266 11.9531H27.3047V10.4766H21.2266V11.9531ZM17.8672 20.5703C17.8672 18.6875 16.9766 17.0625 15.1328 16.5391C16.4766 15.8984 17.1797 15.1562 17.1797 13.6484C17.1797 10.6641 14.9531 9.9375 12.3828 9.9375H5.3125V24.9375H12.5859C15.3125 24.9219 17.8672 23.6172 17.8672 20.5703ZM29.6875 19.4141C29.6875 16.2031 27.8047 13.5234 24.4062 13.5234C21.0938 13.5234 18.8516 16.0078 18.8516 19.2734C18.8516 22.6562 20.9844 24.9766 24.4062 24.9766C27 24.9766 28.6797 23.8125 29.4922 21.3203H26.8594C26.5703 22.25 25.4062 22.7344 24.5 22.7344C22.75 22.7344 21.8359 21.7109 21.8359 19.9766H29.6641C29.6719 19.7969 29.6875 19.6016 29.6875 19.4141Z" fill="#FFFCF9"/>
</svg>
