<svg width="40" height="40" viewBox="0 0 40 40" fill="none" xmlns="http://www.w3.org/2000/svg">
<g clip-path="url(#clip0_89_28)">
<path opacity="0.3" d="M31.6667 25.8333C31.6667 28.7065 30.5253 31.462 28.4937 33.4936C26.462 35.5253 23.7065 36.6666 20.8333 36.6666C17.9602 36.6666 15.2047 35.5253 13.173 33.4936C11.1414 31.462 10 28.7065 10 25.8333V11.6666C10 11.2 10.3667 10.8333 10.8333 10.8333C11.3 10.8333 11.6667 11.2 11.6667 11.6666V20H15V6.66665C15 6.19998 15.3667 5.83331 15.8333 5.83331C16.3 5.83331 16.6667 6.19998 16.6667 6.66665V18.3333H20V4.16665C20 3.69998 20.3667 3.33331 20.8333 3.33331C21.3 3.33331 21.6667 3.69998 21.6667 4.16665V18.3333H25V7.49998C25 7.03331 25.3667 6.66665 25.8333 6.66665C26.3 6.66665 26.6667 7.03331 26.6667 7.49998V22.3666C23.7167 23.65 21.6667 26.5833 21.6667 30H25C25 27.2333 27.2333 25 30 25V17.5C30 17.0333 30.3667 16.6666 30.8333 16.6666C31.3 16.6666 31.6667 17.0333 31.6667 17.5V25.8333Z" fill="#F1BC00"/>
<path d="M30.8333 13.3333C30.55 13.3333 30.2666 13.3667 30 13.4167V7.5C29.9997 6.87653 29.8596 6.26106 29.5898 5.69896C29.3201 5.13686 28.9276 4.64245 28.4414 4.25219C27.9552 3.86193 27.3876 3.58577 26.7804 3.44404C26.1733 3.30232 25.542 3.29866 24.9333 3.43333C24.7606 2.47128 24.2555 1.60045 23.5061 0.972916C22.7567 0.345385 21.8107 0.00103495 20.8333 0C19.0666 0 17.5666 1.1 16.95 2.65C16.3308 2.47776 15.6802 2.45109 15.049 2.57206C14.4178 2.69302 13.8232 2.95836 13.3116 3.34731C12.8 3.73626 12.3853 4.23828 12.0999 4.81412C11.8145 5.38995 11.6663 6.024 11.6666 6.66667V7.58333C11.0612 7.45975 10.4358 7.47237 9.83586 7.6203C9.23589 7.76822 8.67634 8.04774 8.19773 8.4386C7.71912 8.82946 7.33344 9.32188 7.06863 9.8802C6.80382 10.4385 6.6665 11.0487 6.66663 11.6667V25.8333C6.66663 33.65 13.0166 40 20.8333 40C28.65 40 35 33.65 35 25.8333V17.5C35 16.3949 34.561 15.3351 33.7796 14.5537C32.9982 13.7723 31.9384 13.3333 30.8333 13.3333ZM31.6666 25.8333C31.6666 28.7065 30.5253 31.462 28.4936 33.4937C26.462 35.5253 23.7065 36.6667 20.8333 36.6667C17.9601 36.6667 15.2046 35.5253 13.173 33.4937C11.1413 31.462 9.99996 28.7065 9.99996 25.8333V11.6667C9.99996 11.2 10.3666 10.8333 10.8333 10.8333C11.3 10.8333 11.6666 11.2 11.6666 11.6667V20H15V6.66667C15 6.2 15.3666 5.83333 15.8333 5.83333C16.3 5.83333 16.6666 6.2 16.6666 6.66667V18.3333H20V4.16667C20 3.7 20.3666 3.33333 20.8333 3.33333C21.3 3.33333 21.6666 3.7 21.6666 4.16667V18.3333H25V7.5C25 7.03333 25.3666 6.66667 25.8333 6.66667C26.3 6.66667 26.6666 7.03333 26.6666 7.5V22.3667C23.7166 23.65 21.6666 26.5833 21.6666 30H25C25 27.2333 27.2333 25 30 25V17.5C30 17.0333 30.3666 16.6667 30.8333 16.6667C31.3 16.6667 31.6666 17.0333 31.6666 17.5V25.8333Z" fill="#F1BC00"/>
</g>
<defs>
<clipPath id="clip0_89_28">
<rect width="40" height="40" fill="white"/>
</clipPath>
</defs>
</svg>
