<svg width="44" height="36" viewBox="0 0 44 36" fill="none" xmlns="http://www.w3.org/2000/svg">
<path d="M39.625 0.5H4.625C2.21875 0.5 0.271875 2.46875 0.271875 4.875L0.25 31.125C0.25 33.5312 2.21875 35.5 4.625 35.5H39.625C42.0312 35.5 44 33.5312 44 31.125V4.875C44 2.46875 42.0312 0.5 39.625 0.5ZM38.75 9.79688L23.2844 19.4656C22.5844 19.9031 21.6656 19.9031 20.9656 19.4656L5.5 9.79688C5.28065 9.67374 5.08857 9.50738 4.93538 9.30787C4.78219 9.10835 4.67107 8.87983 4.60876 8.63612C4.54644 8.39242 4.53422 8.13861 4.57284 7.89005C4.61146 7.64148 4.70011 7.40334 4.83343 7.19003C4.96675 6.97672 5.14196 6.79268 5.34846 6.64905C5.55497 6.50542 5.78847 6.40518 6.03483 6.3544C6.2812 6.30363 6.53531 6.30336 6.78178 6.35364C7.02825 6.40391 7.26195 6.50367 7.46875 6.64687L22.125 15.8125L36.7812 6.64687C36.988 6.50367 37.2218 6.40391 37.4682 6.35364C37.7147 6.30336 37.9688 6.30363 38.2152 6.3544C38.4615 6.40518 38.695 6.50542 38.9015 6.64905C39.108 6.79268 39.2833 6.97672 39.4166 7.19003C39.5499 7.40334 39.6385 7.64148 39.6772 7.89005C39.7158 8.13861 39.7036 8.39242 39.6412 8.63612C39.5789 8.87983 39.4678 9.10835 39.3146 9.30787C39.1614 9.50738 38.9693 9.67374 38.75 9.79688Z" fill="#FFFCF9"/>
</svg>
