<?xml version="1.0" encoding="UTF-8"?>
<svg id="Layer_3" data-name="Layer 3" xmlns="http://www.w3.org/2000/svg" viewBox="0 0 1000 1000">
  <defs>
    <style>
      .cls-1 {
        fill: #fff;
      }
    </style>
  </defs>
  <path class="cls-1" d="M503.37,476c33.82-.03,64.84,18.77,80.46,48.77l164.1,315.15c9.53,18.12,28.31,29.47,48.78,29.47h4.67v10.13h-238.49v-10.59h2.13c19.86,0,32.65-21.06,24.12-38.68l-182.34-354.16,96.57-.09Z"/>
  <polygon class="cls-1" points="665.71 131.57 562.72 131.57 562.72 120.48 775.72 120.48 775.72 131.07 775.72 131.07 665.71 131.57"/>
  <g>
    <path class="cls-1" d="M334.26,120.48H192.78v10.59l17.19,1.08c28.77,.65,51.76,24.16,51.76,52.94v401.38l67.21-86.55,50.05-64.45c18.02-23.2,27.8-51.74,27.8-81.12V185.09c0-28.78,22.99-52.29,51.76-52.94l26.21-1.08v-10.59h-150.49Z"/>
    <path class="cls-1" d="M406.78,814.91V476l-77.85,104.61-39.41,50.75c-18.02,23.2-27.8,51.74-27.8,81.12v102.42c0,28.78-22.99,52.29-51.76,52.94l-17.19,1.08v10.59H484.75v-10.59l-26.21-1.08c-28.77-.65-51.76-24.16-51.76-52.94Z"/>
  </g>
</svg>